<?xml version="1.0" encoding="UTF-8" standalone="no"?>
<!DOCTYPE svg PUBLIC "-//W3C//DTD SVG 1.1//EN"
 "http://www.w3.org/Graphics/SVG/1.1/DTD/svg11.dtd">
<!-- Generated by graphviz version 2.38.0 (20140413.2041)
 -->
<!-- Title: controllers_diagram Pages: 1 -->
<svg width="862pt" height="867pt"
 viewBox="0.00 0.00 861.50 867.00" xmlns="http://www.w3.org/2000/svg" xmlns:xlink="http://www.w3.org/1999/xlink">
<g id="graph0" class="graph" transform="scale(1 1) rotate(0) translate(403 485.5)">
<title>controllers_diagram</title>
<polygon fill="none" stroke="none" points="-403,381.5 -403,-485.5 458.5,-485.5 458.5,381.5 -403,381.5"/>
<!-- _diagram_info -->
<g id="node1" class="node"><title>_diagram_info</title>
<text text-anchor="start" x="-307" y="-378.6" font-family="Times,serif" font-size="13.00">Controllers diagram</text>
<text text-anchor="start" x="-307" y="-364.6" font-family="Times,serif" font-size="13.00">Date: Jan 29 2016 &#45; 21:40</text>
<text text-anchor="start" x="-307" y="-350.6" font-family="Times,serif" font-size="13.00">Migration version: 20141204170528</text>
<text text-anchor="start" x="-307" y="-336.6" font-family="Times,serif" font-size="13.00">Generated by RailRoady 1.4.2</text>
<text text-anchor="start" x="-307" y="-322.6" font-family="Times,serif" font-size="13.00">http://railroady.prestonlee.com</text>
</g>
<!-- PaymentsController -->
<g id="node2" class="node"><title>PaymentsController</title>
<path fill="none" stroke="black" d="M-219.5,230C-219.5,230 -118.5,230 -118.5,230 -112.5,230 -106.5,224 -106.5,218 -106.5,218 -106.5,44 -106.5,44 -106.5,38 -112.5,32 -118.5,32 -118.5,32 -219.5,32 -219.5,32 -225.5,32 -231.5,38 -231.5,44 -231.5,44 -231.5,218 -231.5,218 -231.5,224 -225.5,230 -219.5,230"/>
<text text-anchor="middle" x="-169" y="47.2" font-family="Times,serif" font-size="14.00">PaymentsController</text>
<polyline fill="none" stroke="black" points="-231.5,55 -106.5,55 "/>
<text text-anchor="start" x="-223.5" y="70.2" font-family="Times,serif" font-size="14.00">create</text>
<text text-anchor="start" x="-223.5" y="85.2" font-family="Times,serif" font-size="14.00">destroy</text>
<text text-anchor="start" x="-223.5" y="100.2" font-family="Times,serif" font-size="14.00">edit</text>
<text text-anchor="start" x="-223.5" y="115.2" font-family="Times,serif" font-size="14.00">find</text>
<text text-anchor="start" x="-223.5" y="130.2" font-family="Times,serif" font-size="14.00">index</text>
<text text-anchor="start" x="-223.5" y="145.2" font-family="Times,serif" font-size="14.00">list</text>
<text text-anchor="start" x="-223.5" y="160.2" font-family="Times,serif" font-size="14.00">new</text>
<text text-anchor="start" x="-223.5" y="175.2" font-family="Times,serif" font-size="14.00">update</text>
<polyline fill="none" stroke="black" points="-231.5,183 -106.5,183 "/>
<polyline fill="none" stroke="black" points="-231.5,207 -106.5,207 "/>
<text text-anchor="start" x="-223.5" y="222.2" font-family="Times,serif" font-size="14.00">_layout</text>
</g>
<!-- ApiController -->
<g id="node3" class="node"><title>ApiController</title>
<path fill="none" stroke="black" d="M263.5,251C263.5,251 442.5,251 442.5,251 448.5,251 454.5,245 454.5,239 454.5,239 454.5,81 454.5,81 454.5,75 448.5,69 442.5,69 442.5,69 263.5,69 263.5,69 257.5,69 251.5,75 251.5,81 251.5,81 251.5,239 251.5,239 251.5,245 257.5,251 263.5,251"/>
<text text-anchor="middle" x="353" y="84.2" font-family="Times,serif" font-size="14.00">ApiController</text>
<polyline fill="none" stroke="black" points="251.5,92 454.5,92 "/>
<text text-anchor="start" x="259.5" y="107.2" font-family="Times,serif" font-size="14.00">auth</text>
<text text-anchor="start" x="259.5" y="122.2" font-family="Times,serif" font-size="14.00">credit</text>
<text text-anchor="start" x="259.5" y="137.2" font-family="Times,serif" font-size="14.00">find</text>
<text text-anchor="start" x="259.5" y="152.2" font-family="Times,serif" font-size="14.00">index</text>
<text text-anchor="start" x="259.5" y="167.2" font-family="Times,serif" font-size="14.00">show</text>
<text text-anchor="start" x="259.5" y="182.2" font-family="Times,serif" font-size="14.00">traffic</text>
<polyline fill="none" stroke="black" points="251.5,190 454.5,190 "/>
<text text-anchor="start" x="259.5" y="205.2" font-family="Times,serif" font-size="14.00">request_http_token_authentication</text>
<polyline fill="none" stroke="black" points="251.5,213 454.5,213 "/>
<text text-anchor="start" x="259.5" y="228.2" font-family="Times,serif" font-size="14.00">_layout</text>
<text text-anchor="start" x="259.5" y="243.2" font-family="Times,serif" font-size="14.00">authenticate</text>
</g>
<!-- AccountsController -->
<g id="node4" class="node"><title>AccountsController</title>
<path fill="none" stroke="black" d="M-218.5,-0.5C-218.5,-0.5 -119.5,-0.5 -119.5,-0.5 -113.5,-0.5 -107.5,-6.5 -107.5,-12.5 -107.5,-12.5 -107.5,-261.5 -107.5,-261.5 -107.5,-267.5 -113.5,-273.5 -119.5,-273.5 -119.5,-273.5 -218.5,-273.5 -218.5,-273.5 -224.5,-273.5 -230.5,-267.5 -230.5,-261.5 -230.5,-261.5 -230.5,-12.5 -230.5,-12.5 -230.5,-6.5 -224.5,-0.5 -218.5,-0.5"/>
<text text-anchor="middle" x="-169" y="-258.3" font-family="Times,serif" font-size="14.00">AccountsController</text>
<polyline fill="none" stroke="black" points="-230.5,-250.5 -107.5,-250.5 "/>
<text text-anchor="start" x="-222.5" y="-235.3" font-family="Times,serif" font-size="14.00">ajax_add_floors</text>
<text text-anchor="start" x="-222.5" y="-220.3" font-family="Times,serif" font-size="14.00">ajax_add_locations</text>
<text text-anchor="start" x="-222.5" y="-205.3" font-family="Times,serif" font-size="14.00">bankinfo</text>
<text text-anchor="start" x="-222.5" y="-190.3" font-family="Times,serif" font-size="14.00">create</text>
<text text-anchor="start" x="-222.5" y="-175.3" font-family="Times,serif" font-size="14.00">destroy</text>
<text text-anchor="start" x="-222.5" y="-160.3" font-family="Times,serif" font-size="14.00">edit</text>
<text text-anchor="start" x="-222.5" y="-145.3" font-family="Times,serif" font-size="14.00">find</text>
<text text-anchor="start" x="-222.5" y="-130.3" font-family="Times,serif" font-size="14.00">index</text>
<text text-anchor="start" x="-222.5" y="-115.3" font-family="Times,serif" font-size="14.00">list</text>
<text text-anchor="start" x="-222.5" y="-100.3" font-family="Times,serif" font-size="14.00">new</text>
<text text-anchor="start" x="-222.5" y="-85.3" font-family="Times,serif" font-size="14.00">newpass</text>
<text text-anchor="start" x="-222.5" y="-70.3" font-family="Times,serif" font-size="14.00">show</text>
<text text-anchor="start" x="-222.5" y="-55.3" font-family="Times,serif" font-size="14.00">update</text>
<polyline fill="none" stroke="black" points="-230.5,-47.5 -107.5,-47.5 "/>
<polyline fill="none" stroke="black" points="-230.5,-23.5 -107.5,-23.5 "/>
<text text-anchor="start" x="-222.5" y="-8.3" font-family="Times,serif" font-size="14.00">_layout</text>
</g>
<!-- CategoriesController -->
<g id="node5" class="node"><title>CategoriesController</title>
<path fill="none" stroke="black" d="M-387,-0C-387,-0 -281,-0 -281,-0 -275,-0 -269,-6 -269,-12 -269,-12 -269,-156 -269,-156 -269,-162 -275,-168 -281,-168 -281,-168 -387,-168 -387,-168 -393,-168 -399,-162 -399,-156 -399,-156 -399,-12 -399,-12 -399,-6 -393,-0 -387,-0"/>
<text text-anchor="middle" x="-334" y="-152.8" font-family="Times,serif" font-size="14.00">CategoriesController</text>
<polyline fill="none" stroke="black" points="-399,-145 -269,-145 "/>
<text text-anchor="start" x="-391" y="-129.8" font-family="Times,serif" font-size="14.00">create</text>
<text text-anchor="start" x="-391" y="-114.8" font-family="Times,serif" font-size="14.00">destroy</text>
<text text-anchor="start" x="-391" y="-99.8" font-family="Times,serif" font-size="14.00">edit</text>
<text text-anchor="start" x="-391" y="-84.8" font-family="Times,serif" font-size="14.00">index</text>
<text text-anchor="start" x="-391" y="-69.8" font-family="Times,serif" font-size="14.00">new</text>
<text text-anchor="start" x="-391" y="-54.8" font-family="Times,serif" font-size="14.00">update</text>
<polyline fill="none" stroke="black" points="-399,-47 -269,-47 "/>
<polyline fill="none" stroke="black" points="-399,-23 -269,-23 "/>
<text text-anchor="start" x="-391" y="-7.8" font-family="Times,serif" font-size="14.00">_layout</text>
</g>
<!-- ApplicationController -->
<g id="node6" class="node"><title>ApplicationController</title>
<path fill="none" stroke="black" d="M-366,377C-366,377 -254,377 -254,377 -248,377 -242,371 -242,365 -242,365 -242,281 -242,281 -242,275 -248,269 -254,269 -254,269 -366,269 -366,269 -372,269 -378,275 -378,281 -378,281 -378,365 -378,365 -378,371 -372,377 -366,377"/>
<text text-anchor="middle" x="-310" y="284.2" font-family="Times,serif" font-size="14.00">ApplicationController</text>
<polyline fill="none" stroke="black" points="-378,292 -242,292 "/>
<polyline fill="none" stroke="black" points="-378,316 -242,316 "/>
<text text-anchor="start" x="-370" y="331.2" font-family="Times,serif" font-size="14.00">authorize</text>
<polyline fill="none" stroke="black" points="-378,339 -242,339 "/>
<text text-anchor="start" x="-370" y="354.2" font-family="Times,serif" font-size="14.00">_layout</text>
<text text-anchor="start" x="-370" y="369.2" font-family="Times,serif" font-size="14.00">pagesize</text>
</g>
<!-- HostsController -->
<g id="node7" class="node"><title>HostsController</title>
<path fill="none" stroke="black" d="M-51,251C-51,251 49,251 49,251 55,251 61,245 61,239 61,239 61,-205 61,-205 61,-211 55,-217 49,-217 49,-217 -51,-217 -51,-217 -57,-217 -63,-211 -63,-205 -63,-205 -63,239 -63,239 -63,245 -57,251 -51,251"/>
<text text-anchor="middle" x="-1" y="-201.8" font-family="Times,serif" font-size="14.00">HostsController</text>
<polyline fill="none" stroke="black" points="-63,-194 61,-194 "/>
<text text-anchor="start" x="-55" y="-178.8" font-family="Times,serif" font-size="14.00">addjack</text>
<text text-anchor="start" x="-55" y="-163.8" font-family="Times,serif" font-size="14.00">addtosys</text>
<text text-anchor="start" x="-55" y="-148.8" font-family="Times,serif" font-size="14.00">ajax_add_ips</text>
<text text-anchor="start" x="-55" y="-133.8" font-family="Times,serif" font-size="14.00">ajax_add_jacks</text>
<text text-anchor="start" x="-55" y="-118.8" font-family="Times,serif" font-size="14.00">ajax_add_sys_ips</text>
<text text-anchor="start" x="-55" y="-103.8" font-family="Times,serif" font-size="14.00">ajax_add_sys_jacks</text>
<text text-anchor="start" x="-55" y="-88.8" font-family="Times,serif" font-size="14.00">ajax_add_sys_ports</text>
<text text-anchor="start" x="-55" y="-73.8" font-family="Times,serif" font-size="14.00">ajax_modify_jack</text>
<text text-anchor="start" x="-55" y="-58.8" font-family="Times,serif" font-size="14.00">changesys</text>
<text text-anchor="start" x="-55" y="-43.8" font-family="Times,serif" font-size="14.00">create</text>
<text text-anchor="start" x="-55" y="-28.8" font-family="Times,serif" font-size="14.00">createsys</text>
<text text-anchor="start" x="-55" y="-13.8" font-family="Times,serif" font-size="14.00">destroy</text>
<text text-anchor="start" x="-55" y="1.2" font-family="Times,serif" font-size="14.00">destroysys</text>
<text text-anchor="start" x="-55" y="16.2" font-family="Times,serif" font-size="14.00">edit</text>
<text text-anchor="start" x="-55" y="31.2" font-family="Times,serif" font-size="14.00">find</text>
<text text-anchor="start" x="-55" y="46.2" font-family="Times,serif" font-size="14.00">index</text>
<text text-anchor="start" x="-55" y="61.2" font-family="Times,serif" font-size="14.00">jacks</text>
<text text-anchor="start" x="-55" y="76.2" font-family="Times,serif" font-size="14.00">list</text>
<text text-anchor="start" x="-55" y="91.2" font-family="Times,serif" font-size="14.00">listsystem</text>
<text text-anchor="start" x="-55" y="106.2" font-family="Times,serif" font-size="14.00">new</text>
<text text-anchor="start" x="-55" y="121.2" font-family="Times,serif" font-size="14.00">newsys</text>
<text text-anchor="start" x="-55" y="136.2" font-family="Times,serif" font-size="14.00">removefromsys</text>
<text text-anchor="start" x="-55" y="151.2" font-family="Times,serif" font-size="14.00">removejack</text>
<text text-anchor="start" x="-55" y="166.2" font-family="Times,serif" font-size="14.00">show</text>
<text text-anchor="start" x="-55" y="181.2" font-family="Times,serif" font-size="14.00">update</text>
<polyline fill="none" stroke="black" points="-63,189 61,189 "/>
<polyline fill="none" stroke="black" points="-63,213 61,213 "/>
<text text-anchor="start" x="-55" y="228.2" font-family="Times,serif" font-size="14.00">_layout</text>
<text text-anchor="start" x="-55" y="243.2" font-family="Times,serif" font-size="14.00">only_admins</text>
</g>
<!-- FeesController -->
<g id="node8" class="node"><title>FeesController</title>
<path fill="none" stroke="black" d="M117,104C117,104 209,104 209,104 215,104 221,98 221,92 221,92 221,-292 221,-292 221,-298 215,-304 209,-304 209,-304 117,-304 117,-304 111,-304 105,-298 105,-292 105,-292 105,92 105,92 105,98 111,104 117,104"/>
<text text-anchor="middle" x="163" y="-288.8" font-family="Times,serif" font-size="14.00">FeesController</text>
<polyline fill="none" stroke="black" points="105,-281 221,-281 "/>
<text text-anchor="start" x="113" y="-265.8" font-family="Times,serif" font-size="14.00">ajax_generate_pdf</text>
<text text-anchor="start" x="113" y="-250.8" font-family="Times,serif" font-size="14.00">ajax_iterate</text>
<text text-anchor="start" x="113" y="-235.8" font-family="Times,serif" font-size="14.00">announcemail</text>
<text text-anchor="start" x="113" y="-220.8" font-family="Times,serif" font-size="14.00">blocknotpaid</text>
<text text-anchor="start" x="113" y="-205.8" font-family="Times,serif" font-size="14.00">create</text>
<text text-anchor="start" x="113" y="-190.8" font-family="Times,serif" font-size="14.00">deletenotpaid</text>
<text text-anchor="start" x="113" y="-175.8" font-family="Times,serif" font-size="14.00">destroy</text>
<text text-anchor="start" x="113" y="-160.8" font-family="Times,serif" font-size="14.00">do_blocking</text>
<text text-anchor="start" x="113" y="-145.8" font-family="Times,serif" font-size="14.00">do_destruction</text>
<text text-anchor="start" x="113" y="-130.8" font-family="Times,serif" font-size="14.00">edit</text>
<text text-anchor="start" x="113" y="-115.8" font-family="Times,serif" font-size="14.00">index</text>
<text text-anchor="start" x="113" y="-100.8" font-family="Times,serif" font-size="14.00">init_blocking</text>
<text text-anchor="start" x="113" y="-85.8" font-family="Times,serif" font-size="14.00">init_destruction</text>
<text text-anchor="start" x="113" y="-70.8" font-family="Times,serif" font-size="14.00">list</text>
<text text-anchor="start" x="113" y="-55.8" font-family="Times,serif" font-size="14.00">new</text>
<text text-anchor="start" x="113" y="-40.8" font-family="Times,serif" font-size="14.00">notpaid</text>
<text text-anchor="start" x="113" y="-25.8" font-family="Times,serif" font-size="14.00">notpaidpdf</text>
<text text-anchor="start" x="113" y="-10.8" font-family="Times,serif" font-size="14.00">remindemail</text>
<text text-anchor="start" x="113" y="4.2" font-family="Times,serif" font-size="14.00">setpaid</text>
<text text-anchor="start" x="113" y="19.2" font-family="Times,serif" font-size="14.00">show</text>
<text text-anchor="start" x="113" y="34.2" font-family="Times,serif" font-size="14.00">update</text>
<polyline fill="none" stroke="black" points="105,42 221,42 "/>
<polyline fill="none" stroke="black" points="105,66 221,66 "/>
<text text-anchor="start" x="113" y="81.2" font-family="Times,serif" font-size="14.00">_layout</text>
<text text-anchor="start" x="113" y="96.2" font-family="Times,serif" font-size="14.00">only_financer</text>
</g>
<!-- MessagesController -->
<g id="node9" class="node"><title>MessagesController</title>
<path fill="none" stroke="black" d="M-51.5,-252.5C-51.5,-252.5 49.5,-252.5 49.5,-252.5 55.5,-252.5 61.5,-258.5 61.5,-264.5 61.5,-264.5 61.5,-453.5 61.5,-453.5 61.5,-459.5 55.5,-465.5 49.5,-465.5 49.5,-465.5 -51.5,-465.5 -51.5,-465.5 -57.5,-465.5 -63.5,-459.5 -63.5,-453.5 -63.5,-453.5 -63.5,-264.5 -63.5,-264.5 -63.5,-258.5 -57.5,-252.5 -51.5,-252.5"/>
<text text-anchor="middle" x="-1" y="-450.3" font-family="Times,serif" font-size="14.00">MessagesController</text>
<polyline fill="none" stroke="black" points="-63.5,-442.5 61.5,-442.5 "/>
<text text-anchor="start" x="-55.5" y="-427.3" font-family="Times,serif" font-size="14.00">ajax_set_default</text>
<text text-anchor="start" x="-55.5" y="-412.3" font-family="Times,serif" font-size="14.00">create</text>
<text text-anchor="start" x="-55.5" y="-397.3" font-family="Times,serif" font-size="14.00">destroy</text>
<text text-anchor="start" x="-55.5" y="-382.3" font-family="Times,serif" font-size="14.00">edit</text>
<text text-anchor="start" x="-55.5" y="-367.3" font-family="Times,serif" font-size="14.00">find</text>
<text text-anchor="start" x="-55.5" y="-352.3" font-family="Times,serif" font-size="14.00">index</text>
<text text-anchor="start" x="-55.5" y="-337.3" font-family="Times,serif" font-size="14.00">list</text>
<text text-anchor="start" x="-55.5" y="-322.3" font-family="Times,serif" font-size="14.00">new</text>
<text text-anchor="start" x="-55.5" y="-307.3" font-family="Times,serif" font-size="14.00">update</text>
<polyline fill="none" stroke="black" points="-63.5,-299.5 61.5,-299.5 "/>
<polyline fill="none" stroke="black" points="-63.5,-275.5 61.5,-275.5 "/>
<text text-anchor="start" x="-55.5" y="-260.3" font-family="Times,serif" font-size="14.00">_layout</text>
</g>
<!-- BlockagesController -->
<g id="node10" class="node"><title>BlockagesController</title>
<path fill="none" stroke="black" d="M264,-253C264,-253 368,-253 368,-253 374,-253 380,-259 380,-265 380,-265 380,-469 380,-469 380,-475 374,-481 368,-481 368,-481 264,-481 264,-481 258,-481 252,-475 252,-469 252,-469 252,-265 252,-265 252,-259 258,-253 264,-253"/>
<text text-anchor="middle" x="316" y="-465.8" font-family="Times,serif" font-size="14.00">BlockagesController</text>
<polyline fill="none" stroke="black" points="252,-458 380,-458 "/>
<text text-anchor="start" x="260" y="-442.8" font-family="Times,serif" font-size="14.00">ajax_set_default</text>
<text text-anchor="start" x="260" y="-427.8" font-family="Times,serif" font-size="14.00">create</text>
<text text-anchor="start" x="260" y="-412.8" font-family="Times,serif" font-size="14.00">destroy</text>
<text text-anchor="start" x="260" y="-397.8" font-family="Times,serif" font-size="14.00">edit</text>
<text text-anchor="start" x="260" y="-382.8" font-family="Times,serif" font-size="14.00">find</text>
<text text-anchor="start" x="260" y="-367.8" font-family="Times,serif" font-size="14.00">index</text>
<text text-anchor="start" x="260" y="-352.8" font-family="Times,serif" font-size="14.00">list</text>
<text text-anchor="start" x="260" y="-337.8" font-family="Times,serif" font-size="14.00">new</text>
<text text-anchor="start" x="260" y="-322.8" font-family="Times,serif" font-size="14.00">stop</text>
<text text-anchor="start" x="260" y="-307.8" font-family="Times,serif" font-size="14.00">update</text>
<polyline fill="none" stroke="black" points="252,-300 380,-300 "/>
<polyline fill="none" stroke="black" points="252,-276 380,-276 "/>
<text text-anchor="start" x="260" y="-260.8" font-family="Times,serif" font-size="14.00">_layout</text>
</g>
<!-- LoginController -->
<g id="node11" class="node"><title>LoginController</title>
<path fill="none" stroke="black" d="M117,293.5C117,293.5 197,293.5 197,293.5 203,293.5 209,287.5 209,281.5 209,281.5 209,152.5 209,152.5 209,146.5 203,140.5 197,140.5 197,140.5 117,140.5 117,140.5 111,140.5 105,146.5 105,152.5 105,152.5 105,281.5 105,281.5 105,287.5 111,293.5 117,293.5"/>
<text text-anchor="middle" x="157" y="155.7" font-family="Times,serif" font-size="14.00">LoginController</text>
<polyline fill="none" stroke="black" points="105,163.5 209,163.5 "/>
<text text-anchor="start" x="113" y="178.7" font-family="Times,serif" font-size="14.00">index</text>
<text text-anchor="start" x="113" y="193.7" font-family="Times,serif" font-size="14.00">login</text>
<text text-anchor="start" x="113" y="208.7" font-family="Times,serif" font-size="14.00">logout</text>
<text text-anchor="start" x="113" y="223.7" font-family="Times,serif" font-size="14.00">restrict</text>
<polyline fill="none" stroke="black" points="105,231.5 209,231.5 "/>
<polyline fill="none" stroke="black" points="105,255.5 209,255.5 "/>
<text text-anchor="start" x="113" y="270.7" font-family="Times,serif" font-size="14.00">_layout</text>
<text text-anchor="start" x="113" y="285.7" font-family="Times,serif" font-size="14.00">checkip</text>
</g>
<!-- ActivesController -->
<g id="node12" class="node"><title>ActivesController</title>
<path fill="none" stroke="black" d="M264,20C264,20 374,20 374,20 380,20 386,14 386,8 386,8 386,-196 386,-196 386,-202 380,-208 374,-208 374,-208 264,-208 264,-208 258,-208 252,-202 252,-196 252,-196 252,8 252,8 252,14 258,20 264,20"/>
<text text-anchor="middle" x="319" y="-192.8" font-family="Times,serif" font-size="14.00">ActivesController</text>
<polyline fill="none" stroke="black" points="252,-185 386,-185 "/>
<text text-anchor="start" x="260" y="-169.8" font-family="Times,serif" font-size="14.00">ajax_updatecomment</text>
<text text-anchor="start" x="260" y="-154.8" font-family="Times,serif" font-size="14.00">create</text>
<text text-anchor="start" x="260" y="-139.8" font-family="Times,serif" font-size="14.00">destroy</text>
<text text-anchor="start" x="260" y="-124.8" font-family="Times,serif" font-size="14.00">edit</text>
<text text-anchor="start" x="260" y="-109.8" font-family="Times,serif" font-size="14.00">find</text>
<text text-anchor="start" x="260" y="-94.8" font-family="Times,serif" font-size="14.00">index</text>
<text text-anchor="start" x="260" y="-79.8" font-family="Times,serif" font-size="14.00">list</text>
<text text-anchor="start" x="260" y="-64.8" font-family="Times,serif" font-size="14.00">new</text>
<text text-anchor="start" x="260" y="-49.8" font-family="Times,serif" font-size="14.00">update</text>
<polyline fill="none" stroke="black" points="252,-42 386,-42 "/>
<polyline fill="none" stroke="black" points="252,-18 386,-18 "/>
<text text-anchor="start" x="260" y="-2.8" font-family="Times,serif" font-size="14.00">_layout</text>
<text text-anchor="start" x="260" y="12.2" font-family="Times,serif" font-size="14.00">only_admins</text>
</g>
</g>
</svg>
