<?xml version="1.0" encoding="UTF-8" standalone="no"?>
<!DOCTYPE svg PUBLIC "-//W3C//DTD SVG 1.1//EN"
 "http://www.w3.org/Graphics/SVG/1.1/DTD/svg11.dtd">
<!-- Generated by graphviz version 2.38.0 (20140413.2041)
 -->
<!-- Title: models_diagram Pages: 1 -->
<svg width="1181pt" height="1197pt"
 viewBox="0.00 0.00 1181.00 1197.00" xmlns="http://www.w3.org/2000/svg" xmlns:xlink="http://www.w3.org/1999/xlink">
<g id="graph0" class="graph" transform="scale(1 1) rotate(0) translate(4 1193)">
<title>models_diagram</title>
<polygon fill="none" stroke="none" points="-4,4 -4,-1193 1177,-1193 1177,4 -4,4"/>
<!-- _diagram_info -->
<g id="node1" class="node"><title>_diagram_info</title>
<text text-anchor="start" x="279" y="-1160.1" font-family="Times,serif" font-size="13.00">Models diagram</text>
<text text-anchor="start" x="279" y="-1146.1" font-family="Times,serif" font-size="13.00">Date: Jan 29 2016 &#45; 21:40</text>
<text text-anchor="start" x="279" y="-1132.1" font-family="Times,serif" font-size="13.00">Migration version: 20141204170528</text>
<text text-anchor="start" x="279" y="-1118.1" font-family="Times,serif" font-size="13.00">Generated by RailRoady 1.4.2</text>
<text text-anchor="start" x="279" y="-1104.1" font-family="Times,serif" font-size="13.00">http://railroady.prestonlee.com</text>
</g>
<!-- Payment -->
<g id="node2" class="node"><title>Payment</title>
<path fill="none" stroke="black" d="M55.5,-446.5C55.5,-446.5 152.5,-446.5 152.5,-446.5 158.5,-446.5 164.5,-452.5 164.5,-458.5 164.5,-458.5 164.5,-525.5 164.5,-525.5 164.5,-531.5 158.5,-537.5 152.5,-537.5 152.5,-537.5 55.5,-537.5 55.5,-537.5 49.5,-537.5 43.5,-531.5 43.5,-525.5 43.5,-525.5 43.5,-458.5 43.5,-458.5 43.5,-452.5 49.5,-446.5 55.5,-446.5"/>
<text text-anchor="middle" x="104" y="-522.3" font-family="Times,serif" font-size="14.00">Payment</text>
<polyline fill="none" stroke="black" points="43.5,-514.5 164.5,-514.5 "/>
<text text-anchor="start" x="51.5" y="-499.3" font-family="Times,serif" font-size="14.00">id :integer</text>
<text text-anchor="start" x="51.5" y="-484.3" font-family="Times,serif" font-size="14.00">date :date</text>
<text text-anchor="start" x="51.5" y="-469.3" font-family="Times,serif" font-size="14.00">fee_id :integer</text>
<text text-anchor="start" x="51.5" y="-454.3" font-family="Times,serif" font-size="14.00">account_id :integer</text>
</g>
<!-- Port -->
<g id="node3" class="node"><title>Port</title>
<path fill="none" stroke="black" d="M829,-802C829,-802 919,-802 919,-802 925,-802 931,-808 931,-814 931,-814 931,-866 931,-866 931,-872 925,-878 919,-878 919,-878 829,-878 829,-878 823,-878 817,-872 817,-866 817,-866 817,-814 817,-814 817,-808 823,-802 829,-802"/>
<text text-anchor="middle" x="874" y="-862.8" font-family="Times,serif" font-size="14.00">Port</text>
<polyline fill="none" stroke="black" points="817,-855 931,-855 "/>
<text text-anchor="start" x="825" y="-839.8" font-family="Times,serif" font-size="14.00">id :integer</text>
<text text-anchor="start" x="825" y="-824.8" font-family="Times,serif" font-size="14.00">number :integer</text>
<text text-anchor="start" x="825" y="-809.8" font-family="Times,serif" font-size="14.00">switch_id :integer</text>
</g>
<!-- Jack -->
<g id="node18" class="node"><title>Jack</title>
<path fill="none" stroke="black" d="M932,-628C932,-628 1030,-628 1030,-628 1036,-628 1042,-634 1042,-640 1042,-640 1042,-722 1042,-722 1042,-728 1036,-734 1030,-734 1030,-734 932,-734 932,-734 926,-734 920,-728 920,-722 920,-722 920,-640 920,-640 920,-634 926,-628 932,-628"/>
<text text-anchor="middle" x="981" y="-718.8" font-family="Times,serif" font-size="14.00">Jack</text>
<polyline fill="none" stroke="black" points="920,-711 1042,-711 "/>
<text text-anchor="start" x="928" y="-695.8" font-family="Times,serif" font-size="14.00">id :integer</text>
<text text-anchor="start" x="928" y="-680.8" font-family="Times,serif" font-size="14.00">number :integer</text>
<text text-anchor="start" x="928" y="-665.8" font-family="Times,serif" font-size="14.00">port_id :integer</text>
<text text-anchor="start" x="928" y="-650.8" font-family="Times,serif" font-size="14.00">location_id :integer</text>
<text text-anchor="start" x="928" y="-635.8" font-family="Times,serif" font-size="14.00">subnet_id :integer</text>
</g>
<!-- Port&#45;&gt;Jack -->
<g id="edge1" class="edge"><title>Port&#45;&gt;Jack</title>
<path fill="none" stroke="#61b13c" d="M903.997,-794.986C915.379,-778.286 928.531,-758.987 940.71,-741.117"/>
<ellipse fill="none" stroke="#61b13c" cx="901.61" cy="-798.488" rx="4.00002" ry="4.00002"/>
<ellipse fill="#61b13c" stroke="#61b13c" cx="943.249" cy="-737.392" rx="4.00002" ry="4.00002"/>
</g>
<!-- Domain -->
<g id="node4" class="node"><title>Domain</title>
<path fill="none" stroke="black" d="M1007,-961C1007,-961 1161,-961 1161,-961 1167,-961 1173,-967 1173,-973 1173,-973 1173,-1010 1173,-1010 1173,-1016 1167,-1022 1161,-1022 1161,-1022 1007,-1022 1007,-1022 1001,-1022 995,-1016 995,-1010 995,-1010 995,-973 995,-973 995,-967 1001,-961 1007,-961"/>
<text text-anchor="middle" x="1084" y="-1006.8" font-family="Times,serif" font-size="14.00">Domain</text>
<polyline fill="none" stroke="black" points="995,-999 1173,-999 "/>
<text text-anchor="start" x="1003" y="-983.8" font-family="Times,serif" font-size="14.00">id :integer</text>
<text text-anchor="start" x="1003" y="-968.8" font-family="Times,serif" font-size="14.00">name :character varying(128)</text>
</g>
<!-- Location -->
<g id="node15" class="node"><title>Location</title>
<path fill="none" stroke="black" d="M617.5,-779.5C617.5,-779.5 786.5,-779.5 786.5,-779.5 792.5,-779.5 798.5,-785.5 798.5,-791.5 798.5,-791.5 798.5,-888.5 798.5,-888.5 798.5,-894.5 792.5,-900.5 786.5,-900.5 786.5,-900.5 617.5,-900.5 617.5,-900.5 611.5,-900.5 605.5,-894.5 605.5,-888.5 605.5,-888.5 605.5,-791.5 605.5,-791.5 605.5,-785.5 611.5,-779.5 617.5,-779.5"/>
<text text-anchor="middle" x="702" y="-885.3" font-family="Times,serif" font-size="14.00">Location</text>
<polyline fill="none" stroke="black" points="605.5,-877.5 798.5,-877.5 "/>
<text text-anchor="start" x="613.5" y="-862.3" font-family="Times,serif" font-size="14.00">id :integer</text>
<text text-anchor="start" x="613.5" y="-847.3" font-family="Times,serif" font-size="14.00">room :character varying(8)</text>
<text text-anchor="start" x="613.5" y="-832.3" font-family="Times,serif" font-size="14.00">flat :character varying(8)</text>
<text text-anchor="start" x="613.5" y="-817.3" font-family="Times,serif" font-size="14.00">floor_id :integer</text>
<text text-anchor="start" x="613.5" y="-802.3" font-family="Times,serif" font-size="14.00">domain_id :integer</text>
<text text-anchor="start" x="613.5" y="-787.3" font-family="Times,serif" font-size="14.00">comment :character varying(32)</text>
</g>
<!-- Domain&#45;&gt;Location -->
<g id="edge3" class="edge"><title>Domain&#45;&gt;Location</title>
<path fill="none" stroke="#ab81f8" d="M1026.42,-957.166C1012.53,-950.086 997.497,-943.191 983,-938 911.08,-912.246 884.444,-927.8 808.302,-900.804"/>
<ellipse fill="none" stroke="#ab81f8" cx="1030.02" cy="-959.035" rx="4.00002" ry="4.00002"/>
<polygon fill="#ab81f8" stroke="#ab81f8" points="808.15,-900.748 800.318,-893.072 803.457,-899.022 798.764,-897.296 798.764,-897.296 798.764,-897.296 803.457,-899.022 797.211,-901.519 808.15,-900.748 808.15,-900.748"/>
</g>
<!-- Hostname -->
<g id="node21" class="node"><title>Hostname</title>
<path fill="none" stroke="black" d="M1013.5,-8C1013.5,-8 1160.5,-8 1160.5,-8 1166.5,-8 1172.5,-14 1172.5,-20 1172.5,-20 1172.5,-87 1172.5,-87 1172.5,-93 1166.5,-99 1160.5,-99 1160.5,-99 1013.5,-99 1013.5,-99 1007.5,-99 1001.5,-93 1001.5,-87 1001.5,-87 1001.5,-20 1001.5,-20 1001.5,-14 1007.5,-8 1013.5,-8"/>
<text text-anchor="middle" x="1087" y="-83.8" font-family="Times,serif" font-size="14.00">Hostname</text>
<polyline fill="none" stroke="black" points="1001.5,-76 1172.5,-76 "/>
<text text-anchor="start" x="1009.5" y="-60.8" font-family="Times,serif" font-size="14.00">id :integer</text>
<text text-anchor="start" x="1009.5" y="-45.8" font-family="Times,serif" font-size="14.00">name :character varying(64)</text>
<text text-anchor="start" x="1009.5" y="-30.8" font-family="Times,serif" font-size="14.00">domain_id :integer</text>
<text text-anchor="start" x="1009.5" y="-15.8" font-family="Times,serif" font-size="14.00">primary :boolean</text>
</g>
<!-- Domain&#45;&gt;Hostname -->
<g id="edge2" class="edge"><title>Domain&#45;&gt;Hostname</title>
<path fill="none" stroke="#5cfe92" d="M1085.18,-952.562C1086.02,-922.346 1087,-878.967 1087,-841 1087,-841 1087,-841 1087,-195.5 1087,-167.082 1087,-135.443 1087,-109.347"/>
<ellipse fill="none" stroke="#5cfe92" cx="1085.06" cy="-956.722" rx="4" ry="4"/>
<polygon fill="#5cfe92" stroke="#5cfe92" points="1087,-109.269 1091.5,-99.2687 1087,-104.269 1087,-99.2688 1087,-99.2688 1087,-99.2688 1087,-104.269 1082.5,-99.2688 1087,-109.269 1087,-109.269"/>
</g>
<!-- Traffic -->
<g id="node5" class="node"><title>Traffic</title>
<path fill="none" stroke="black" d="M869,-0.5C869,-0.5 971,-0.5 971,-0.5 977,-0.5 983,-6.5 983,-12.5 983,-12.5 983,-94.5 983,-94.5 983,-100.5 977,-106.5 971,-106.5 971,-106.5 869,-106.5 869,-106.5 863,-106.5 857,-100.5 857,-94.5 857,-94.5 857,-12.5 857,-12.5 857,-6.5 863,-0.5 869,-0.5"/>
<text text-anchor="middle" x="920" y="-91.3" font-family="Times,serif" font-size="14.00">Traffic</text>
<polyline fill="none" stroke="black" points="857,-83.5 983,-83.5 "/>
<text text-anchor="start" x="865" y="-68.3" font-family="Times,serif" font-size="14.00">ip :cidr</text>
<text text-anchor="start" x="865" y="-53.3" font-family="Times,serif" font-size="14.00">date :date</text>
<text text-anchor="start" x="865" y="-38.3" font-family="Times,serif" font-size="14.00">traffic_in :bigint</text>
<text text-anchor="start" x="865" y="-23.3" font-family="Times,serif" font-size="14.00">traffic_out :bigint</text>
<text text-anchor="start" x="865" y="-8.3" font-family="Times,serif" font-size="14.00">traffic_saved :bigint</text>
</g>
<!-- Ip -->
<g id="node11" class="node"><title>Ip</title>
<path fill="none" stroke="black" d="M924,-158.5C924,-158.5 1002,-158.5 1002,-158.5 1008,-158.5 1014,-164.5 1014,-170.5 1014,-170.5 1014,-222.5 1014,-222.5 1014,-228.5 1008,-234.5 1002,-234.5 1002,-234.5 924,-234.5 924,-234.5 918,-234.5 912,-228.5 912,-222.5 912,-222.5 912,-170.5 912,-170.5 912,-164.5 918,-158.5 924,-158.5"/>
<text text-anchor="middle" x="963" y="-219.3" font-family="Times,serif" font-size="14.00">Ip</text>
<polyline fill="none" stroke="black" points="912,-211.5 1014,-211.5 "/>
<text text-anchor="start" x="920" y="-196.3" font-family="Times,serif" font-size="14.00">id :integer</text>
<text text-anchor="start" x="920" y="-181.3" font-family="Times,serif" font-size="14.00">ip :cidr</text>
<text text-anchor="start" x="920" y="-166.3" font-family="Times,serif" font-size="14.00">mac_id :integer</text>
</g>
<!-- Traffic&#45;&gt;Ip -->
<g id="edge4" class="edge"><title>Traffic&#45;&gt;Ip</title>
<path fill="none" stroke="#2caa41" d="M915.945,-115.079C916.742,-123.596 918.304,-132.124 921,-140 922.311,-143.832 923.999,-147.611 925.943,-151.287"/>
<ellipse fill="none" stroke="#2caa41" cx="915.669" cy="-110.93" rx="4" ry="4"/>
<ellipse fill="#2caa41" stroke="#2caa41" cx="927.955" cy="-154.754" rx="4.00002" ry="4.00002"/>
<text text-anchor="middle" x="935" y="-128.8" font-family="Times,serif" font-size="14.00">ip_ip</text>
</g>
<!-- Activegroup -->
<g id="node6" class="node"><title>Activegroup</title>
<path fill="none" stroke="black" d="M714,-643C714,-643 890,-643 890,-643 896,-643 902,-649 902,-655 902,-655 902,-707 902,-707 902,-713 896,-719 890,-719 890,-719 714,-719 714,-719 708,-719 702,-713 702,-707 702,-707 702,-655 702,-655 702,-649 708,-643 714,-643"/>
<text text-anchor="middle" x="802" y="-703.8" font-family="Times,serif" font-size="14.00">Activegroup</text>
<polyline fill="none" stroke="black" points="702,-696 902,-696 "/>
<text text-anchor="start" x="710" y="-680.8" font-family="Times,serif" font-size="14.00">id :integer</text>
<text text-anchor="start" x="710" y="-665.8" font-family="Times,serif" font-size="14.00">name :character varying(16)</text>
<text text-anchor="start" x="710" y="-650.8" font-family="Times,serif" font-size="14.00">comment :character varying(128)</text>
</g>
<!-- Active -->
<g id="node10" class="node"><title>Active</title>
<path fill="none" stroke="black" d="M765,-446.5C765,-446.5 941,-446.5 941,-446.5 947,-446.5 953,-452.5 953,-458.5 953,-458.5 953,-525.5 953,-525.5 953,-531.5 947,-537.5 941,-537.5 941,-537.5 765,-537.5 765,-537.5 759,-537.5 753,-531.5 753,-525.5 753,-525.5 753,-458.5 753,-458.5 753,-452.5 759,-446.5 765,-446.5"/>
<text text-anchor="middle" x="853" y="-522.3" font-family="Times,serif" font-size="14.00">Active</text>
<polyline fill="none" stroke="black" points="753,-514.5 953,-514.5 "/>
<text text-anchor="start" x="761" y="-499.3" font-family="Times,serif" font-size="14.00">id :integer</text>
<text text-anchor="start" x="761" y="-484.3" font-family="Times,serif" font-size="14.00">account_id :integer</text>
<text text-anchor="start" x="761" y="-469.3" font-family="Times,serif" font-size="14.00">comment :character varying(128)</text>
<text text-anchor="start" x="761" y="-454.3" font-family="Times,serif" font-size="14.00">activegroup_id :integer</text>
</g>
<!-- Activegroup&#45;&gt;Active -->
<g id="edge5" class="edge"><title>Activegroup&#45;&gt;Active</title>
<path fill="none" stroke="#f097a2" d="M814.398,-634.542C821.555,-608.297 830.604,-575.117 838.142,-547.48"/>
<ellipse fill="none" stroke="#f097a2" cx="813.251" cy="-638.748" rx="4.00001" ry="4.00001"/>
<polygon fill="#f097a2" stroke="#f097a2" points="838.213,-547.22 845.185,-538.756 839.528,-542.396 840.844,-537.572 840.844,-537.572 840.844,-537.572 839.528,-542.396 836.503,-536.388 838.213,-547.22 838.213,-547.22"/>
</g>
<!-- Message -->
<g id="node7" class="node"><title>Message</title>
<path fill="none" stroke="black" d="M195,-431.5C195,-431.5 359,-431.5 359,-431.5 365,-431.5 371,-437.5 371,-443.5 371,-443.5 371,-540.5 371,-540.5 371,-546.5 365,-552.5 359,-552.5 359,-552.5 195,-552.5 195,-552.5 189,-552.5 183,-546.5 183,-540.5 183,-540.5 183,-443.5 183,-443.5 183,-437.5 189,-431.5 195,-431.5"/>
<text text-anchor="middle" x="277" y="-537.3" font-family="Times,serif" font-size="14.00">Message</text>
<polyline fill="none" stroke="black" points="183,-529.5 371,-529.5 "/>
<text text-anchor="start" x="191" y="-514.3" font-family="Times,serif" font-size="14.00">id :integer</text>
<text text-anchor="start" x="191" y="-499.3" font-family="Times,serif" font-size="14.00">date :date</text>
<text text-anchor="start" x="191" y="-484.3" font-family="Times,serif" font-size="14.00">content :character varying(512)</text>
<text text-anchor="start" x="191" y="-469.3" font-family="Times,serif" font-size="14.00">account_id :integer</text>
<text text-anchor="start" x="191" y="-454.3" font-family="Times,serif" font-size="14.00">submitter_id :integer</text>
<text text-anchor="start" x="191" y="-439.3" font-family="Times,serif" font-size="14.00">category_id :integer</text>
</g>
<!-- Subnet -->
<g id="node8" class="node"><title>Subnet</title>
<path fill="none" stroke="black" d="M961.5,-794.5C961.5,-794.5 1046.5,-794.5 1046.5,-794.5 1052.5,-794.5 1058.5,-800.5 1058.5,-806.5 1058.5,-806.5 1058.5,-873.5 1058.5,-873.5 1058.5,-879.5 1052.5,-885.5 1046.5,-885.5 1046.5,-885.5 961.5,-885.5 961.5,-885.5 955.5,-885.5 949.5,-879.5 949.5,-873.5 949.5,-873.5 949.5,-806.5 949.5,-806.5 949.5,-800.5 955.5,-794.5 961.5,-794.5"/>
<text text-anchor="middle" x="1004" y="-870.3" font-family="Times,serif" font-size="14.00">Subnet</text>
<polyline fill="none" stroke="black" points="949.5,-862.5 1058.5,-862.5 "/>
<text text-anchor="start" x="957.5" y="-847.3" font-family="Times,serif" font-size="14.00">id :integer</text>
<text text-anchor="start" x="957.5" y="-832.3" font-family="Times,serif" font-size="14.00">gateway :inet</text>
<text text-anchor="start" x="957.5" y="-817.3" font-family="Times,serif" font-size="14.00">network :inet</text>
<text text-anchor="start" x="957.5" y="-802.3" font-family="Times,serif" font-size="14.00">syscount :integer</text>
</g>
<!-- Subnet&#45;&gt;Jack -->
<g id="edge6" class="edge"><title>Subnet&#45;&gt;Jack</title>
<path fill="none" stroke="#d14343" d="M996.285,-786.339C994.304,-772.816 992.155,-758.142 990.11,-744.187"/>
<ellipse fill="none" stroke="#d14343" cx="996.891" cy="-790.472" rx="4.00001" ry="4.00001"/>
<polygon fill="#d14343" stroke="#d14343" points="990.094,-744.074 993.097,-733.528 989.369,-739.127 988.644,-734.18 988.644,-734.18 988.644,-734.18 989.369,-739.127 984.192,-734.832 990.094,-744.074 990.094,-744.074"/>
</g>
<!-- Blockage -->
<g id="node9" class="node"><title>Blockage</title>
<path fill="none" stroke="black" d="M547,-401.5C547,-401.5 723,-401.5 723,-401.5 729,-401.5 735,-407.5 735,-413.5 735,-413.5 735,-570.5 735,-570.5 735,-576.5 729,-582.5 723,-582.5 723,-582.5 547,-582.5 547,-582.5 541,-582.5 535,-576.5 535,-570.5 535,-570.5 535,-413.5 535,-413.5 535,-407.5 541,-401.5 547,-401.5"/>
<text text-anchor="middle" x="635" y="-567.3" font-family="Times,serif" font-size="14.00">Blockage</text>
<polyline fill="none" stroke="black" points="535,-559.5 735,-559.5 "/>
<text text-anchor="start" x="543" y="-544.3" font-family="Times,serif" font-size="14.00">id :integer</text>
<text text-anchor="start" x="543" y="-529.3" font-family="Times,serif" font-size="14.00">secure :boolean</text>
<text text-anchor="start" x="543" y="-514.3" font-family="Times,serif" font-size="14.00">comment :character varying(512)</text>
<text text-anchor="start" x="543" y="-499.3" font-family="Times,serif" font-size="14.00">oldshell :character varying(64)</text>
<text text-anchor="start" x="543" y="-484.3" font-family="Times,serif" font-size="14.00">account_id :integer</text>
<text text-anchor="start" x="543" y="-469.3" font-family="Times,serif" font-size="14.00">disabler_id :integer</text>
<text text-anchor="start" x="543" y="-454.3" font-family="Times,serif" font-size="14.00">startdate :date</text>
<text text-anchor="start" x="543" y="-439.3" font-family="Times,serif" font-size="14.00">days :integer</text>
<text text-anchor="start" x="543" y="-424.3" font-family="Times,serif" font-size="14.00">expired :boolean</text>
<text text-anchor="start" x="543" y="-409.3" font-family="Times,serif" font-size="14.00">category_id :integer</text>
</g>
<!-- Ip&#45;&gt;Traffic -->
<g id="edge8" class="edge"><title>Ip&#45;&gt;Traffic</title>
<path fill="none" stroke="#959ae4" d="M955.361,-150.215C953.554,-141.762 951.432,-133.057 949,-125 948.157,-122.209 947.245,-119.376 946.281,-116.529"/>
<ellipse fill="none" stroke="#959ae4" cx="956.195" cy="-154.293" rx="4.00001" ry="4.00001"/>
<polygon fill="#959ae4" stroke="#959ae4" points="946.185,-116.258 947.072,-105.328 944.509,-111.547 942.832,-106.836 942.832,-106.836 942.832,-106.836 944.509,-111.547 938.593,-108.345 946.185,-116.258 946.185,-116.258"/>
</g>
<!-- Ip&#45;&gt;Hostname -->
<g id="edge7" class="edge"><title>Ip&#45;&gt;Hostname</title>
<path fill="none" stroke="#29a306" d="M1002.52,-150.567C1014.73,-136.682 1028.28,-121.267 1040.9,-106.922"/>
<polygon fill="#29a306" stroke="#29a306" points="1002.18,-150.945 992.2,-155.482 998.881,-154.699 995.58,-158.454 995.58,-158.454 995.58,-158.454 998.881,-154.699 998.959,-161.426 1002.18,-150.945 1002.18,-150.945"/>
<polygon fill="#29a306" stroke="#29a306" points="1041.19,-106.589 1051.17,-102.052 1044.49,-102.835 1047.79,-99.08 1047.79,-99.08 1047.79,-99.08 1044.49,-102.835 1044.42,-96.1082 1041.19,-106.589 1041.19,-106.589"/>
</g>
<!-- Switch -->
<g id="node12" class="node"><title>Switch</title>
<path fill="none" stroke="black" d="M786,-938.5C786,-938.5 962,-938.5 962,-938.5 968,-938.5 974,-944.5 974,-950.5 974,-950.5 974,-1032.5 974,-1032.5 974,-1038.5 968,-1044.5 962,-1044.5 962,-1044.5 786,-1044.5 786,-1044.5 780,-1044.5 774,-1038.5 774,-1032.5 774,-1032.5 774,-950.5 774,-950.5 774,-944.5 780,-938.5 786,-938.5"/>
<text text-anchor="middle" x="874" y="-1029.3" font-family="Times,serif" font-size="14.00">Switch</text>
<polyline fill="none" stroke="black" points="774,-1021.5 974,-1021.5 "/>
<text text-anchor="start" x="782" y="-1006.3" font-family="Times,serif" font-size="14.00">id :integer</text>
<text text-anchor="start" x="782" y="-991.3" font-family="Times,serif" font-size="14.00">ip :inet</text>
<text text-anchor="start" x="782" y="-976.3" font-family="Times,serif" font-size="14.00">switchtype :character varying(32)</text>
<text text-anchor="start" x="782" y="-961.3" font-family="Times,serif" font-size="14.00">location_id :integer</text>
<text text-anchor="start" x="782" y="-946.3" font-family="Times,serif" font-size="14.00">comment :character varying(64)</text>
</g>
<!-- Switch&#45;&gt;Port -->
<g id="edge9" class="edge"><title>Switch&#45;&gt;Port</title>
<path fill="none" stroke="#e29023" d="M874,-929.781C874,-916.066 874,-901.697 874,-888.612"/>
<ellipse fill="none" stroke="#e29023" cx="874" cy="-934.212" rx="4" ry="4"/>
<polygon fill="#e29023" stroke="#e29023" points="874,-888.43 878.5,-878.43 874,-883.43 874,-878.43 874,-878.43 874,-878.43 874,-883.43 869.5,-878.43 874,-888.43 874,-888.43"/>
</g>
<!-- Floor -->
<g id="node13" class="node"><title>Floor</title>
<path fill="none" stroke="black" d="M548,-953.5C548,-953.5 648,-953.5 648,-953.5 654,-953.5 660,-959.5 660,-965.5 660,-965.5 660,-1017.5 660,-1017.5 660,-1023.5 654,-1029.5 648,-1029.5 648,-1029.5 548,-1029.5 548,-1029.5 542,-1029.5 536,-1023.5 536,-1017.5 536,-1017.5 536,-965.5 536,-965.5 536,-959.5 542,-953.5 548,-953.5"/>
<text text-anchor="middle" x="598" y="-1014.3" font-family="Times,serif" font-size="14.00">Floor</text>
<polyline fill="none" stroke="black" points="536,-1006.5 660,-1006.5 "/>
<text text-anchor="start" x="544" y="-991.3" font-family="Times,serif" font-size="14.00">id :integer</text>
<text text-anchor="start" x="544" y="-976.3" font-family="Times,serif" font-size="14.00">number :integer</text>
<text text-anchor="start" x="544" y="-961.3" font-family="Times,serif" font-size="14.00">building_id :integer</text>
</g>
<!-- Floor&#45;&gt;Location -->
<g id="edge10" class="edge"><title>Floor&#45;&gt;Location</title>
<path fill="none" stroke="#5f0ceb" d="M628.763,-946.278C636.946,-934.515 645.977,-921.533 654.82,-908.822"/>
<ellipse fill="none" stroke="#5f0ceb" cx="626.26" cy="-949.877" rx="4.00002" ry="4.00002"/>
<polygon fill="#5f0ceb" stroke="#5f0ceb" points="654.882,-908.732 664.287,-903.092 657.738,-904.627 660.593,-900.523 660.593,-900.523 660.593,-900.523 657.738,-904.627 656.899,-897.953 654.882,-908.732 654.882,-908.732"/>
</g>
<!-- Account -->
<g id="node20" class="node"><title>Account</title>
<path fill="none" stroke="black" d="M446.5,-628C446.5,-628 593.5,-628 593.5,-628 599.5,-628 605.5,-634 605.5,-640 605.5,-640 605.5,-722 605.5,-722 605.5,-728 599.5,-734 593.5,-734 593.5,-734 446.5,-734 446.5,-734 440.5,-734 434.5,-728 434.5,-722 434.5,-722 434.5,-640 434.5,-640 434.5,-634 440.5,-628 446.5,-628"/>
<text text-anchor="middle" x="520" y="-718.8" font-family="Times,serif" font-size="14.00">Account</text>
<polyline fill="none" stroke="black" points="434.5,-711 605.5,-711 "/>
<text text-anchor="start" x="442.5" y="-695.8" font-family="Times,serif" font-size="14.00">id :integer</text>
<text text-anchor="start" x="442.5" y="-680.8" font-family="Times,serif" font-size="14.00">login :character varying(16)</text>
<text text-anchor="start" x="442.5" y="-665.8" font-family="Times,serif" font-size="14.00">name :character varying(64)</text>
<text text-anchor="start" x="442.5" y="-650.8" font-family="Times,serif" font-size="14.00">location_id :integer</text>
<text text-anchor="start" x="442.5" y="-635.8" font-family="Times,serif" font-size="14.00">entrydate :date</text>
</g>
<!-- Floor&#45;&gt;Account -->
<g id="edge11" class="edge"><title>Floor&#45;&gt;Account</title>
<path fill="none" stroke="#d3af51" d="M555.475,-945.447C545.296,-932.1 535.726,-916.801 530,-901 511.713,-850.54 510.539,-789.221 513.172,-744.316"/>
<polygon fill="#d3af51" stroke="#d3af51" points="555.644,-945.66 558.339,-956.29 558.754,-949.576 561.863,-953.491 561.863,-953.491 561.863,-953.491 558.754,-949.576 565.387,-950.693 555.644,-945.66 555.644,-945.66"/>
<polygon fill="#d3af51" stroke="#d3af51" points="513.186,-744.112 518.341,-734.434 513.518,-739.123 513.851,-734.134 513.851,-734.134 513.851,-734.134 513.518,-739.123 509.361,-733.835 513.186,-744.112 513.186,-744.112"/>
<text text-anchor="middle" x="563.5" y="-836.3" font-family="Times,serif" font-size="14.00">flooradmins</text>
</g>
<!-- Mac -->
<g id="node14" class="node"><title>Mac</title>
<path fill="none" stroke="black" d="M915.5,-272.5C915.5,-272.5 1010.5,-272.5 1010.5,-272.5 1016.5,-272.5 1022.5,-278.5 1022.5,-284.5 1022.5,-284.5 1022.5,-351.5 1022.5,-351.5 1022.5,-357.5 1016.5,-363.5 1010.5,-363.5 1010.5,-363.5 915.5,-363.5 915.5,-363.5 909.5,-363.5 903.5,-357.5 903.5,-351.5 903.5,-351.5 903.5,-284.5 903.5,-284.5 903.5,-278.5 909.5,-272.5 915.5,-272.5"/>
<text text-anchor="middle" x="963" y="-348.3" font-family="Times,serif" font-size="14.00">Mac</text>
<polyline fill="none" stroke="black" points="903.5,-340.5 1022.5,-340.5 "/>
<text text-anchor="start" x="911.5" y="-325.3" font-family="Times,serif" font-size="14.00">id :integer</text>
<text text-anchor="start" x="911.5" y="-310.3" font-family="Times,serif" font-size="14.00">macaddr :macaddr</text>
<text text-anchor="start" x="911.5" y="-295.3" font-family="Times,serif" font-size="14.00">jack_id :integer</text>
<text text-anchor="start" x="911.5" y="-280.3" font-family="Times,serif" font-size="14.00">host_id :integer</text>
</g>
<!-- Mac&#45;&gt;Ip -->
<g id="edge12" class="edge"><title>Mac&#45;&gt;Ip</title>
<path fill="none" stroke="#79a8bb" d="M963,-263.973C963,-257.665 963,-251.255 963,-245.03"/>
<ellipse fill="none" stroke="#79a8bb" cx="963" cy="-268.163" rx="4" ry="4"/>
<polygon fill="#79a8bb" stroke="#79a8bb" points="963,-244.779 967.5,-234.779 963,-239.779 963,-234.779 963,-234.779 963,-234.779 963,-239.779 958.5,-234.779 963,-244.779 963,-244.779"/>
</g>
<!-- Location&#45;&gt;Jack -->
<g id="edge14" class="edge"><title>Location&#45;&gt;Jack</title>
<path fill="none" stroke="#a3fc05" d="M805.978,-779.934C806.653,-779.62 807.327,-779.309 808,-779 852.214,-758.724 868.952,-766.453 911,-742 912.297,-741.246 913.593,-740.466 914.886,-739.664"/>
<ellipse fill="none" stroke="#a3fc05" cx="802.313" cy="-781.675" rx="4.00002" ry="4.00002"/>
<polygon fill="#a3fc05" stroke="#a3fc05" points="915.014,-739.58 925.84,-737.834 919.189,-736.829 923.364,-734.077 923.364,-734.077 923.364,-734.077 919.189,-736.829 920.887,-730.32 915.014,-739.58 915.014,-739.58"/>
</g>
<!-- Location&#45;&gt;Account -->
<g id="edge13" class="edge"><title>Location&#45;&gt;Account</title>
<path fill="none" stroke="#85213e" d="M626.811,-774.14C614.001,-763.089 600.759,-751.666 588.144,-740.784"/>
<ellipse fill="none" stroke="#85213e" cx="629.905" cy="-776.808" rx="4.00002" ry="4.00002"/>
<polygon fill="#85213e" stroke="#85213e" points="587.952,-740.618 583.32,-730.679 584.166,-737.352 580.38,-734.086 580.38,-734.086 580.38,-734.086 584.166,-737.352 577.441,-737.494 587.952,-740.618 587.952,-740.618"/>
</g>
<!-- Building -->
<g id="node16" class="node"><title>Building</title>
<path fill="none" stroke="black" d="M515.5,-1082.5C515.5,-1082.5 680.5,-1082.5 680.5,-1082.5 686.5,-1082.5 692.5,-1088.5 692.5,-1094.5 692.5,-1094.5 692.5,-1176.5 692.5,-1176.5 692.5,-1182.5 686.5,-1188.5 680.5,-1188.5 680.5,-1188.5 515.5,-1188.5 515.5,-1188.5 509.5,-1188.5 503.5,-1182.5 503.5,-1176.5 503.5,-1176.5 503.5,-1094.5 503.5,-1094.5 503.5,-1088.5 509.5,-1082.5 515.5,-1082.5"/>
<text text-anchor="middle" x="598" y="-1173.3" font-family="Times,serif" font-size="14.00">Building</text>
<polyline fill="none" stroke="black" points="503.5,-1165.5 692.5,-1165.5 "/>
<text text-anchor="start" x="511.5" y="-1150.3" font-family="Times,serif" font-size="14.00">id :integer</text>
<text text-anchor="start" x="511.5" y="-1135.3" font-family="Times,serif" font-size="14.00">city :character varying(32)</text>
<text text-anchor="start" x="511.5" y="-1120.3" font-family="Times,serif" font-size="14.00">street :character varying(48)</text>
<text text-anchor="start" x="511.5" y="-1105.3" font-family="Times,serif" font-size="14.00">housenumber :integer</text>
<text text-anchor="start" x="511.5" y="-1090.3" font-family="Times,serif" font-size="14.00">postcode :character varying(16)</text>
</g>
<!-- Building&#45;&gt;Floor -->
<g id="edge15" class="edge"><title>Building&#45;&gt;Floor</title>
<path fill="none" stroke="#b1d244" d="M598,-1074.17C598,-1062.78 598,-1051.01 598,-1040.08"/>
<ellipse fill="none" stroke="#b1d244" cx="598" cy="-1078.43" rx="4" ry="4"/>
<polygon fill="#b1d244" stroke="#b1d244" points="598,-1039.9 602.5,-1029.9 598,-1034.9 598,-1029.9 598,-1029.9 598,-1029.9 598,-1034.9 593.5,-1029.9 598,-1039.9 598,-1039.9"/>
</g>
<!-- Fee -->
<g id="node17" class="node"><title>Fee</title>
<path fill="none" stroke="black" d="M12,-620.5C12,-620.5 196,-620.5 196,-620.5 202,-620.5 208,-626.5 208,-632.5 208,-632.5 208,-729.5 208,-729.5 208,-735.5 202,-741.5 196,-741.5 196,-741.5 12,-741.5 12,-741.5 6,-741.5 0,-735.5 0,-729.5 0,-729.5 0,-632.5 0,-632.5 0,-626.5 6,-620.5 12,-620.5"/>
<text text-anchor="middle" x="104" y="-726.3" font-family="Times,serif" font-size="14.00">Fee</text>
<polyline fill="none" stroke="black" points="0,-718.5 208,-718.5 "/>
<text text-anchor="start" x="8" y="-703.3" font-family="Times,serif" font-size="14.00">id :integer</text>
<text text-anchor="start" x="8" y="-688.3" font-family="Times,serif" font-size="14.00">regular :boolean</text>
<text text-anchor="start" x="8" y="-673.3" font-family="Times,serif" font-size="14.00">amount :integer</text>
<text text-anchor="start" x="8" y="-658.3" font-family="Times,serif" font-size="14.00">currency :character varying(4)</text>
<text text-anchor="start" x="8" y="-643.3" font-family="Times,serif" font-size="14.00">description :character varying(128)</text>
<text text-anchor="start" x="8" y="-628.3" font-family="Times,serif" font-size="14.00">duedate :date</text>
</g>
<!-- Fee&#45;&gt;Payment -->
<g id="edge16" class="edge"><title>Fee&#45;&gt;Payment</title>
<path fill="none" stroke="#88ce6b" d="M104,-612.022C104,-590.912 104,-567.924 104,-547.828"/>
<ellipse fill="none" stroke="#88ce6b" cx="104" cy="-616.318" rx="4" ry="4"/>
<polygon fill="#88ce6b" stroke="#88ce6b" points="104,-547.608 108.5,-537.608 104,-542.608 104,-537.608 104,-537.608 104,-537.608 104,-542.608 99.5,-537.608 104,-547.608 104,-547.608"/>
</g>
<!-- Jack&#45;&gt;Mac -->
<g id="edge17" class="edge"><title>Jack&#45;&gt;Mac</title>
<path fill="none" stroke="#87d239" d="M977.996,-619.759C974.578,-551.206 969.043,-440.193 965.739,-373.93"/>
<ellipse fill="none" stroke="#87d239" cx="978.203" cy="-623.898" rx="4" ry="4"/>
<polygon fill="#87d239" stroke="#87d239" points="965.727,-373.681 969.723,-363.469 965.478,-368.687 965.228,-363.693 965.228,-363.693 965.228,-363.693 965.478,-368.687 960.734,-363.917 965.727,-373.681 965.727,-373.681"/>
</g>
<!-- Host -->
<g id="node19" class="node"><title>Host</title>
<path fill="none" stroke="black" d="M401,-454C401,-454 505,-454 505,-454 511,-454 517,-460 517,-466 517,-466 517,-518 517,-518 517,-524 511,-530 505,-530 505,-530 401,-530 401,-530 395,-530 389,-524 389,-518 389,-518 389,-466 389,-466 389,-460 395,-454 401,-454"/>
<text text-anchor="middle" x="453" y="-514.8" font-family="Times,serif" font-size="14.00">Host</text>
<polyline fill="none" stroke="black" points="389,-507 517,-507 "/>
<text text-anchor="start" x="397" y="-491.8" font-family="Times,serif" font-size="14.00">id :integer</text>
<text text-anchor="start" x="397" y="-476.8" font-family="Times,serif" font-size="14.00">systemhost :boolean</text>
<text text-anchor="start" x="397" y="-461.8" font-family="Times,serif" font-size="14.00">account_id :integer</text>
</g>
<!-- Host&#45;&gt;Mac -->
<g id="edge18" class="edge"><title>Host&#45;&gt;Mac</title>
<path fill="none" stroke="#dd3abc" d="M479.072,-446.965C491.253,-430.072 507.233,-412.183 526,-401 587.027,-364.634 786.206,-338.172 893.328,-326.171"/>
<ellipse fill="none" stroke="#dd3abc" cx="476.714" cy="-450.342" rx="4.00002" ry="4.00002"/>
<polygon fill="#dd3abc" stroke="#dd3abc" points="893.461,-326.157 903.895,-329.528 898.43,-325.606 903.4,-325.055 903.4,-325.055 903.4,-325.055 898.43,-325.606 902.904,-320.583 893.461,-326.157 893.461,-326.157"/>
</g>
<!-- Account&#45;&gt;Payment -->
<g id="edge23" class="edge"><title>Account&#45;&gt;Payment</title>
<path fill="none" stroke="#0dfcc9" d="M426.484,-670.009C352.766,-658.498 250.071,-634.104 174,-583 159.578,-573.311 146.816,-559.686 136.272,-545.963"/>
<ellipse fill="none" stroke="#0dfcc9" cx="430.469" cy="-670.615" rx="4.00001" ry="4.00001"/>
<polygon fill="#0dfcc9" stroke="#0dfcc9" points="136.261,-545.948 133.946,-535.23 133.293,-541.925 130.325,-537.901 130.325,-537.901 130.325,-537.901 133.293,-541.925 126.703,-540.573 136.261,-545.948 136.261,-545.948"/>
</g>
<!-- Account&#45;&gt;Message -->
<g id="edge21" class="edge"><title>Account&#45;&gt;Message</title>
<path fill="none" stroke="#e81b6b" d="M434.772,-623.215C416.426,-610.367 397.345,-596.518 380,-583 370.394,-575.513 360.502,-567.414 350.825,-559.248"/>
<ellipse fill="none" stroke="#e81b6b" cx="438.212" cy="-625.613" rx="4.00002" ry="4.00002"/>
<polygon fill="#e81b6b" stroke="#e81b6b" points="350.738,-559.173 346.035,-549.267 346.929,-555.934 343.12,-552.695 343.12,-552.695 343.12,-552.695 346.929,-555.934 340.205,-556.123 350.738,-559.173 350.738,-559.173"/>
</g>
<!-- Account&#45;&gt;Blockage -->
<g id="edge22" class="edge"><title>Account&#45;&gt;Blockage</title>
<path fill="none" stroke="#f43d4a" d="M556.359,-620.877C562.131,-611.491 568.233,-601.569 574.383,-591.569"/>
<ellipse fill="none" stroke="#f43d4a" cx="554.129" cy="-624.503" rx="4.00002" ry="4.00002"/>
<polygon fill="#f43d4a" stroke="#f43d4a" points="574.554,-591.291 583.625,-585.13 577.173,-587.032 579.792,-582.773 579.792,-582.773 579.792,-582.773 577.173,-587.032 575.959,-580.416 574.554,-591.291 574.554,-591.291"/>
</g>
<!-- Account&#45;&gt;Active -->
<g id="edge19" class="edge"><title>Account&#45;&gt;Active</title>
<path fill="none" stroke="#189c96" d="M613.402,-646.409C654.757,-629.825 703.172,-608 744,-583 762.753,-571.517 781.733,-557.046 798.482,-543.086"/>
<ellipse fill="none" stroke="#189c96" cx="609.483" cy="-647.966" rx="4.00001" ry="4.00001"/>
<ellipse fill="#189c96" stroke="#189c96" cx="801.972" cy="-540.141" rx="4.00002" ry="4.00002"/>
</g>
<!-- Account&#45;&gt;Host -->
<g id="edge20" class="edge"><title>Account&#45;&gt;Host</title>
<path fill="none" stroke="#414cc9" d="M498.541,-620.106C489.216,-594.08 478.455,-564.046 469.736,-539.71"/>
<ellipse fill="none" stroke="#414cc9" cx="499.988" cy="-624.144" rx="4.00001" ry="4.00001"/>
<polygon fill="#414cc9" stroke="#414cc9" points="469.63,-539.415 470.493,-528.483 467.944,-534.708 466.257,-530.001 466.257,-530.001 466.257,-530.001 467.944,-534.708 462.021,-531.519 469.63,-539.415 469.63,-539.415"/>
</g>
<!-- Category -->
<g id="node22" class="node"><title>Category</title>
<path fill="none" stroke="black" d="M723,-1082.5C723,-1082.5 911,-1082.5 911,-1082.5 917,-1082.5 923,-1088.5 923,-1094.5 923,-1094.5 923,-1176.5 923,-1176.5 923,-1182.5 917,-1188.5 911,-1188.5 911,-1188.5 723,-1188.5 723,-1188.5 717,-1188.5 711,-1182.5 711,-1176.5 711,-1176.5 711,-1094.5 711,-1094.5 711,-1088.5 717,-1082.5 723,-1082.5"/>
<text text-anchor="middle" x="817" y="-1173.3" font-family="Times,serif" font-size="14.00">Category</text>
<polyline fill="none" stroke="black" points="711,-1165.5 923,-1165.5 "/>
<text text-anchor="start" x="719" y="-1150.3" font-family="Times,serif" font-size="14.00">id :integer</text>
<text text-anchor="start" x="719" y="-1135.3" font-family="Times,serif" font-size="14.00">name :character varying(64)</text>
<text text-anchor="start" x="719" y="-1120.3" font-family="Times,serif" font-size="14.00">type :integer</text>
<text text-anchor="start" x="719" y="-1105.3" font-family="Times,serif" font-size="14.00">color :character(7)</text>
<text text-anchor="start" x="719" y="-1090.3" font-family="Times,serif" font-size="14.00">default_text :character varying(512)</text>
</g>
</g>
</svg>
