<?xml version="1.0" encoding="UTF-8" standalone="no"?>
<!DOCTYPE svg PUBLIC "-//W3C//DTD SVG 1.1//EN"
 "http://www.w3.org/Graphics/SVG/1.1/DTD/svg11.dtd">
<!-- Generated by graphviz version 2.38.0 (20140413.2041)
 -->
<!-- Title: models_diagram Pages: 1 -->
<svg width="633pt" height="611pt"
 viewBox="0.00 0.00 632.80 611.00" xmlns="http://www.w3.org/2000/svg" xmlns:xlink="http://www.w3.org/1999/xlink">
<g id="graph0" class="graph" transform="scale(1 1) rotate(0) translate(4 607)">
<title>models_diagram</title>
<polygon fill="none" stroke="none" points="-4,4 -4,-607 628.796,-607 628.796,4 -4,4"/>
<!-- _diagram_info -->
<g id="node1" class="node"><title>_diagram_info</title>
<text text-anchor="start" x="8" y="-588.6" font-family="Times,serif" font-size="13.00">Models diagram</text>
<text text-anchor="start" x="8" y="-574.6" font-family="Times,serif" font-size="13.00">Date: Jan 29 2016 &#45; 21:40</text>
<text text-anchor="start" x="8" y="-560.6" font-family="Times,serif" font-size="13.00">Migration version: 20141204170528</text>
<text text-anchor="start" x="8" y="-546.6" font-family="Times,serif" font-size="13.00">Generated by RailRoady 1.4.2</text>
<text text-anchor="start" x="8" y="-532.6" font-family="Times,serif" font-size="13.00">http://railroady.prestonlee.com</text>
</g>
<!-- Payment -->
<g id="node2" class="node"><title>Payment</title>
<ellipse fill="none" stroke="black" cx="55" cy="-251" rx="42.4939" ry="18"/>
<text text-anchor="middle" x="55" y="-247.3" font-family="Times,serif" font-size="14.00">Payment</text>
</g>
<!-- Port -->
<g id="node3" class="node"><title>Port</title>
<ellipse fill="none" stroke="black" cx="437" cy="-397" rx="27" ry="18"/>
<text text-anchor="middle" x="437" y="-393.3" font-family="Times,serif" font-size="14.00">Port</text>
</g>
<!-- Jack -->
<g id="node18" class="node"><title>Jack</title>
<ellipse fill="none" stroke="black" cx="505" cy="-324" rx="27" ry="18"/>
<text text-anchor="middle" x="505" y="-320.3" font-family="Times,serif" font-size="14.00">Jack</text>
</g>
<!-- Port&#45;&gt;Jack -->
<g id="edge1" class="edge"><title>Port&#45;&gt;Jack</title>
<path fill="none" stroke="#42b5fd" d="M456.877,-375.246C465.837,-365.891 476.387,-354.875 485.323,-345.545"/>
<ellipse fill="none" stroke="#42b5fd" cx="453.856" cy="-378.4" rx="4.00002" ry="4.00002"/>
<ellipse fill="#42b5fd" stroke="#42b5fd" cx="488.162" cy="-342.581" rx="4.00002" ry="4.00002"/>
</g>
<!-- Domain -->
<g id="node4" class="node"><title>Domain</title>
<ellipse fill="none" stroke="black" cx="555" cy="-470" rx="39.7935" ry="18"/>
<text text-anchor="middle" x="555" y="-466.3" font-family="Times,serif" font-size="14.00">Domain</text>
</g>
<!-- Location -->
<g id="node15" class="node"><title>Location</title>
<ellipse fill="none" stroke="black" cx="350" cy="-397" rx="42.4939" ry="18"/>
<text text-anchor="middle" x="350" y="-393.3" font-family="Times,serif" font-size="14.00">Location</text>
</g>
<!-- Domain&#45;&gt;Location -->
<g id="edge3" class="edge"><title>Domain&#45;&gt;Location</title>
<path fill="none" stroke="#ea79ec" d="M516.337,-455.609C480.795,-443.3 428.24,-425.098 391.752,-412.46"/>
<ellipse fill="none" stroke="#ea79ec" cx="520.53" cy="-457.061" rx="4.00001" ry="4.00001"/>
<polygon fill="#ea79ec" stroke="#ea79ec" points="391.364,-412.326 383.387,-404.801 386.639,-410.69 381.914,-409.053 381.914,-409.053 381.914,-409.053 386.639,-410.69 380.442,-413.305 391.364,-412.326 391.364,-412.326"/>
</g>
<!-- Hostname -->
<g id="node21" class="node"><title>Hostname</title>
<ellipse fill="none" stroke="black" cx="578" cy="-18" rx="46.5926" ry="18"/>
<text text-anchor="middle" x="578" y="-14.3" font-family="Times,serif" font-size="14.00">Hostname</text>
</g>
<!-- Domain&#45;&gt;Hostname -->
<g id="edge2" class="edge"><title>Domain&#45;&gt;Hostname</title>
<path fill="none" stroke="#12c0e8" d="M568.005,-444.941C574.082,-431.523 580,-414.277 580,-398 580,-398 580,-398 580,-104 580,-84.7472 579.481,-63.0483 578.972,-46.3935"/>
<ellipse fill="none" stroke="#12c0e8" cx="566.179" cy="-448.755" rx="4.00002" ry="4.00002"/>
<polygon fill="#12c0e8" stroke="#12c0e8" points="578.967,-46.2484 583.141,-36.1082 578.805,-41.251 578.644,-36.2536 578.644,-36.2536 578.644,-36.2536 578.805,-41.251 574.146,-36.399 578.967,-46.2484 578.967,-46.2484"/>
</g>
<!-- Traffic -->
<g id="node5" class="node"><title>Traffic</title>
<ellipse fill="none" stroke="black" cx="477" cy="-18" rx="35.194" ry="18"/>
<text text-anchor="middle" x="477" y="-14.3" font-family="Times,serif" font-size="14.00">Traffic</text>
</g>
<!-- Ip -->
<g id="node11" class="node"><title>Ip</title>
<ellipse fill="none" stroke="black" cx="518" cy="-105" rx="27" ry="18"/>
<text text-anchor="middle" x="518" y="-101.3" font-family="Times,serif" font-size="14.00">Ip</text>
</g>
<!-- Traffic&#45;&gt;Ip -->
<g id="edge4" class="edge"><title>Traffic&#45;&gt;Ip</title>
<path fill="none" stroke="#8e43c5" d="M472.915,-44.1876C472.629,-52.4194 473.493,-61.3944 477,-69 480.281,-76.115 485.801,-82.3196 491.745,-87.4482"/>
<ellipse fill="none" stroke="#8e43c5" cx="473.25" cy="-39.9543" rx="4" ry="4"/>
<ellipse fill="#8e43c5" stroke="#8e43c5" cx="495.13" cy="-90.1106" rx="4.00002" ry="4.00002"/>
<text text-anchor="middle" x="491" y="-57.8" font-family="Times,serif" font-size="14.00">ip_ip</text>
</g>
<!-- Activegroup -->
<g id="node6" class="node"><title>Activegroup</title>
<ellipse fill="none" stroke="black" cx="405" cy="-324" rx="54.6905" ry="18"/>
<text text-anchor="middle" x="405" y="-320.3" font-family="Times,serif" font-size="14.00">Activegroup</text>
</g>
<!-- Active -->
<g id="node10" class="node"><title>Active</title>
<ellipse fill="none" stroke="black" cx="431" cy="-251" rx="34.394" ry="18"/>
<text text-anchor="middle" x="431" y="-247.3" font-family="Times,serif" font-size="14.00">Active</text>
</g>
<!-- Activegroup&#45;&gt;Active -->
<g id="edge5" class="edge"><title>Activegroup&#45;&gt;Active</title>
<path fill="none" stroke="#fe1567" d="M414.126,-298.08C416.435,-291.774 418.923,-284.979 421.261,-278.594"/>
<ellipse fill="none" stroke="#fe1567" cx="412.669" cy="-302.057" rx="4.00001" ry="4.00001"/>
<polygon fill="#fe1567" stroke="#fe1567" points="421.325,-278.419 428.99,-270.576 423.045,-273.724 424.764,-269.029 424.764,-269.029 424.764,-269.029 423.045,-273.724 420.538,-267.481 421.325,-278.419 421.325,-278.419"/>
</g>
<!-- Message -->
<g id="node7" class="node"><title>Message</title>
<ellipse fill="none" stroke="black" cx="157" cy="-251" rx="42.4939" ry="18"/>
<text text-anchor="middle" x="157" y="-247.3" font-family="Times,serif" font-size="14.00">Message</text>
</g>
<!-- Subnet -->
<g id="node8" class="node"><title>Subnet</title>
<ellipse fill="none" stroke="black" cx="517" cy="-397" rx="35.194" ry="18"/>
<text text-anchor="middle" x="517" y="-393.3" font-family="Times,serif" font-size="14.00">Subnet</text>
</g>
<!-- Subnet&#45;&gt;Jack -->
<g id="edge6" class="edge"><title>Subnet&#45;&gt;Jack</title>
<path fill="none" stroke="#a66c2f" d="M512.739,-370.791C511.707,-364.683 510.599,-358.13 509.554,-351.946"/>
<ellipse fill="none" stroke="#a66c2f" cx="513.428" cy="-374.869" rx="4.00001" ry="4.00001"/>
<polygon fill="#a66c2f" stroke="#a66c2f" points="509.545,-351.889 512.315,-341.279 508.711,-346.959 507.878,-342.029 507.878,-342.029 507.878,-342.029 508.711,-346.959 503.441,-342.779 509.545,-351.889 509.545,-351.889"/>
</g>
<!-- Blockage -->
<g id="node9" class="node"><title>Blockage</title>
<ellipse fill="none" stroke="black" cx="334" cy="-251" rx="44.393" ry="18"/>
<text text-anchor="middle" x="334" y="-247.3" font-family="Times,serif" font-size="14.00">Blockage</text>
</g>
<!-- Ip&#45;&gt;Traffic -->
<g id="edge8" class="edge"><title>Ip&#45;&gt;Traffic</title>
<path fill="none" stroke="#8256df" d="M513.634,-78.8413C511.65,-70.6536 508.858,-61.6979 505,-54 503.039,-50.0867 500.588,-46.2034 497.957,-42.5257"/>
<ellipse fill="none" stroke="#8256df" cx="514.5" cy="-82.7908" rx="4.00001" ry="4.00001"/>
<polygon fill="#8256df" stroke="#8256df" points="497.776,-42.2938 495.189,-31.6376 494.707,-38.3472 491.637,-34.4005 491.637,-34.4005 491.637,-34.4005 494.707,-38.3472 488.085,-37.1634 497.776,-42.2938 497.776,-42.2938"/>
</g>
<!-- Ip&#45;&gt;Hostname -->
<g id="edge7" class="edge"><title>Ip&#45;&gt;Hostname</title>
<path fill="none" stroke="#9ebc4c" d="M534.867,-80.1052C542.838,-68.8122 552.351,-55.3357 560.412,-43.9157"/>
<polygon fill="#9ebc4c" stroke="#9ebc4c" points="534.772,-80.24 525.329,-85.8146 531.888,-84.3248 529.005,-88.4097 529.005,-88.4097 529.005,-88.4097 531.888,-84.3248 532.681,-91.0048 534.772,-80.24 534.772,-80.24"/>
<polygon fill="#9ebc4c" stroke="#9ebc4c" points="560.477,-43.8236 569.921,-38.249 563.361,-39.7387 566.244,-35.6539 566.244,-35.6539 566.244,-35.6539 563.361,-39.7387 562.568,-33.0588 560.477,-43.8236 560.477,-43.8236"/>
</g>
<!-- Switch -->
<g id="node12" class="node"><title>Switch</title>
<ellipse fill="none" stroke="black" cx="437" cy="-470" rx="35.194" ry="18"/>
<text text-anchor="middle" x="437" y="-466.3" font-family="Times,serif" font-size="14.00">Switch</text>
</g>
<!-- Switch&#45;&gt;Port -->
<g id="edge9" class="edge"><title>Switch&#45;&gt;Port</title>
<path fill="none" stroke="#dee315" d="M437,-443.791C437,-437.832 437,-431.45 437,-425.399"/>
<ellipse fill="none" stroke="#dee315" cx="437" cy="-447.813" rx="4" ry="4"/>
<polygon fill="#dee315" stroke="#dee315" points="437,-425.029 441.5,-415.029 437,-420.029 437,-415.029 437,-415.029 437,-415.029 437,-420.029 432.5,-415.029 437,-425.029 437,-425.029"/>
</g>
<!-- Floor -->
<g id="node13" class="node"><title>Floor</title>
<ellipse fill="none" stroke="black" cx="274" cy="-470" rx="29.795" ry="18"/>
<text text-anchor="middle" x="274" y="-466.3" font-family="Times,serif" font-size="14.00">Floor</text>
</g>
<!-- Floor&#45;&gt;Location -->
<g id="edge10" class="edge"><title>Floor&#45;&gt;Location</title>
<path fill="none" stroke="#8d46e4" d="M295.706,-448.722C305.11,-439.937 316.156,-429.617 325.821,-420.588"/>
<ellipse fill="none" stroke="#8d46e4" cx="292.67" cy="-451.558" rx="4.00002" ry="4.00002"/>
<polygon fill="#8d46e4" stroke="#8d46e4" points="325.911,-420.504 336.291,-416.966 329.565,-417.091 333.219,-413.677 333.219,-413.677 333.219,-413.677 329.565,-417.091 330.147,-410.389 325.911,-420.504 325.911,-420.504"/>
</g>
<!-- Account -->
<g id="node20" class="node"><title>Account</title>
<ellipse fill="none" stroke="black" cx="245" cy="-324" rx="40.0939" ry="18"/>
<text text-anchor="middle" x="245" y="-320.3" font-family="Times,serif" font-size="14.00">Account</text>
</g>
<!-- Floor&#45;&gt;Account -->
<g id="edge11" class="edge"><title>Floor&#45;&gt;Account</title>
<path fill="none" stroke="#929b6a" d="M251.667,-447.161C243.868,-438.04 236.054,-426.817 232,-415 224.943,-394.433 229.243,-369.944 234.722,-351.708"/>
<polygon fill="#929b6a" stroke="#929b6a" points="251.698,-447.196 255.09,-457.624 255.06,-450.898 258.422,-454.599 258.422,-454.599 258.422,-454.599 255.06,-450.898 261.753,-451.574 251.698,-447.196 251.698,-447.196"/>
<polygon fill="#929b6a" stroke="#929b6a" points="234.782,-351.525 242.188,-343.437 236.348,-346.776 237.914,-342.028 237.914,-342.028 237.914,-342.028 236.348,-346.776 233.641,-340.618 234.782,-351.525 234.782,-351.525"/>
<text text-anchor="middle" x="265.5" y="-393.3" font-family="Times,serif" font-size="14.00">flooradmins</text>
</g>
<!-- Mac -->
<g id="node14" class="node"><title>Mac</title>
<ellipse fill="none" stroke="black" cx="505" cy="-178" rx="27" ry="18"/>
<text text-anchor="middle" x="505" y="-174.3" font-family="Times,serif" font-size="14.00">Mac</text>
</g>
<!-- Mac&#45;&gt;Ip -->
<g id="edge12" class="edge"><title>Mac&#45;&gt;Ip</title>
<path fill="none" stroke="#28d79b" d="M509.616,-151.791C510.734,-145.683 511.934,-139.13 513.066,-132.946"/>
<ellipse fill="none" stroke="#28d79b" cx="508.867" cy="-155.878" rx="4.00001" ry="4.00001"/>
<polygon fill="#28d79b" stroke="#28d79b" points="513.081,-132.865 519.308,-123.839 513.981,-127.947 514.882,-123.029 514.882,-123.029 514.882,-123.029 513.981,-127.947 510.456,-122.218 513.081,-132.865 513.081,-132.865"/>
</g>
<!-- Location&#45;&gt;Jack -->
<g id="edge14" class="edge"><title>Location&#45;&gt;Jack</title>
<path fill="none" stroke="#6b4051" d="M385.34,-380.133C409.047,-369.447 440.948,-354.987 469,-342 470.788,-341.172 472.623,-340.318 474.474,-339.454"/>
<ellipse fill="none" stroke="#6b4051" cx="381.593" cy="-381.82" rx="4.00002" ry="4.00002"/>
<polygon fill="#6b4051" stroke="#6b4051" points="474.652,-339.371 485.617,-339.195 479.179,-337.246 483.705,-335.122 483.705,-335.122 483.705,-335.122 479.179,-337.246 481.793,-331.048 474.652,-339.371 474.652,-339.371"/>
</g>
<!-- Location&#45;&gt;Account -->
<g id="edge13" class="edge"><title>Location&#45;&gt;Account</title>
<path fill="none" stroke="#3954c0" d="M321.837,-376.956C307.293,-367.122 289.55,-355.124 274.779,-345.137"/>
<ellipse fill="none" stroke="#3954c0" cx="325.185" cy="-379.22" rx="4.00002" ry="4.00002"/>
<polygon fill="#3954c0" stroke="#3954c0" points="274.757,-345.121 268.994,-335.792 270.615,-342.321 266.473,-339.52 266.473,-339.52 266.473,-339.52 270.615,-342.321 263.952,-343.248 274.757,-345.121 274.757,-345.121"/>
</g>
<!-- Building -->
<g id="node16" class="node"><title>Building</title>
<ellipse fill="none" stroke="black" cx="274" cy="-564" rx="41.6928" ry="18"/>
<text text-anchor="middle" x="274" y="-560.3" font-family="Times,serif" font-size="14.00">Building</text>
</g>
<!-- Building&#45;&gt;Floor -->
<g id="edge15" class="edge"><title>Building&#45;&gt;Floor</title>
<path fill="none" stroke="#8f9305" d="M274,-537.451C274,-525.315 274,-510.795 274,-498.427"/>
<ellipse fill="none" stroke="#8f9305" cx="274" cy="-541.696" rx="4" ry="4"/>
<polygon fill="#8f9305" stroke="#8f9305" points="274,-498.227 278.5,-488.227 274,-493.227 274,-488.227 274,-488.227 274,-488.227 274,-493.227 269.5,-488.227 274,-498.227 274,-498.227"/>
</g>
<!-- Fee -->
<g id="node17" class="node"><title>Fee</title>
<ellipse fill="none" stroke="black" cx="55" cy="-324" rx="27" ry="18"/>
<text text-anchor="middle" x="55" y="-320.3" font-family="Times,serif" font-size="14.00">Fee</text>
</g>
<!-- Fee&#45;&gt;Payment -->
<g id="edge16" class="edge"><title>Fee&#45;&gt;Payment</title>
<path fill="none" stroke="#9e4dd9" d="M55,-297.791C55,-291.832 55,-285.45 55,-279.399"/>
<ellipse fill="none" stroke="#9e4dd9" cx="55" cy="-301.813" rx="4" ry="4"/>
<polygon fill="#9e4dd9" stroke="#9e4dd9" points="55.0001,-279.029 59.5,-269.029 55,-274.029 55,-269.029 55,-269.029 55,-269.029 55,-274.029 50.5,-269.029 55.0001,-279.029 55.0001,-279.029"/>
</g>
<!-- Jack&#45;&gt;Mac -->
<g id="edge17" class="edge"><title>Jack&#45;&gt;Mac</title>
<path fill="none" stroke="#8f6e03" d="M505,-297.838C505,-272.172 505,-232.477 505,-206.124"/>
<ellipse fill="none" stroke="#8f6e03" cx="505" cy="-301.916" rx="4" ry="4"/>
<polygon fill="#8f6e03" stroke="#8f6e03" points="505,-206.062 509.5,-196.062 505,-201.062 505,-196.062 505,-196.062 505,-196.062 505,-201.062 500.5,-196.062 505,-206.062 505,-206.062"/>
</g>
<!-- Host -->
<g id="node19" class="node"><title>Host</title>
<ellipse fill="none" stroke="black" cx="245" cy="-251" rx="27.0966" ry="18"/>
<text text-anchor="middle" x="245" y="-247.3" font-family="Times,serif" font-size="14.00">Host</text>
</g>
<!-- Host&#45;&gt;Mac -->
<g id="edge18" class="edge"><title>Host&#45;&gt;Mac</title>
<path fill="none" stroke="#b7331e" d="M273.467,-235.912C275.988,-234.862 278.523,-233.873 281,-233 345.617,-210.225 424.034,-193.754 468.864,-185.346"/>
<ellipse fill="none" stroke="#b7331e" cx="269.678" cy="-237.582" rx="4.00002" ry="4.00002"/>
<polygon fill="#b7331e" stroke="#b7331e" points="469.14,-185.295 479.79,-187.905 474.057,-184.388 478.974,-183.48 478.974,-183.48 478.974,-183.48 474.057,-184.388 478.157,-179.055 469.14,-185.295 469.14,-185.295"/>
</g>
<!-- Account&#45;&gt;Payment -->
<g id="edge23" class="edge"><title>Account&#45;&gt;Payment</title>
<path fill="none" stroke="#552a4f" d="M207.109,-308.841C174.777,-296.759 128.413,-279.433 95.3858,-267.092"/>
<ellipse fill="none" stroke="#552a4f" cx="211.147" cy="-310.35" rx="4.00001" ry="4.00001"/>
<polygon fill="#552a4f" stroke="#552a4f" points="94.9617,-266.933 87.1696,-259.217 90.278,-265.183 85.5944,-263.433 85.5944,-263.433 85.5944,-263.433 90.278,-265.183 84.0191,-267.648 94.9617,-266.933 94.9617,-266.933"/>
</g>
<!-- Account&#45;&gt;Message -->
<g id="edge21" class="edge"><title>Account&#45;&gt;Message</title>
<path fill="none" stroke="#f85c21" d="M219.766,-302.641C208.534,-293.578 195.293,-282.896 183.876,-273.684"/>
<ellipse fill="none" stroke="#f85c21" cx="223.224" cy="-305.431" rx="4.00002" ry="4.00002"/>
<polygon fill="#f85c21" stroke="#f85c21" points="183.722,-273.56 178.765,-263.778 179.83,-270.42 175.939,-267.28 175.939,-267.28 175.939,-267.28 179.83,-270.42 173.113,-270.783 183.722,-273.56 183.722,-273.56"/>
</g>
<!-- Account&#45;&gt;Blockage -->
<g id="edge22" class="edge"><title>Account&#45;&gt;Blockage</title>
<path fill="none" stroke="#e4cafd" d="M270.136,-302.947C281.553,-293.84 295.082,-283.047 306.742,-273.745"/>
<ellipse fill="none" stroke="#e4cafd" cx="267.002" cy="-305.448" rx="4.00002" ry="4.00002"/>
<polygon fill="#e4cafd" stroke="#e4cafd" points="307.029,-273.517 317.652,-270.798 310.937,-270.398 314.846,-267.28 314.846,-267.28 314.846,-267.28 310.937,-270.398 312.039,-263.763 307.029,-273.517 307.029,-273.517"/>
</g>
<!-- Account&#45;&gt;Active -->
<g id="edge19" class="edge"><title>Account&#45;&gt;Active</title>
<path fill="none" stroke="#3b0fdb" d="M282.414,-308.834C311.059,-297.973 351.545,-282.591 387,-269 390.097,-267.813 393.315,-266.576 396.539,-265.335"/>
<ellipse fill="none" stroke="#3b0fdb" cx="278.403" cy="-310.355" rx="4.00001" ry="4.00001"/>
<ellipse fill="#3b0fdb" stroke="#3b0fdb" cx="400.284" cy="-263.891" rx="4.00001" ry="4.00001"/>
</g>
<!-- Account&#45;&gt;Host -->
<g id="edge20" class="edge"><title>Account&#45;&gt;Host</title>
<path fill="none" stroke="#4f66f8" d="M245,-297.791C245,-291.832 245,-285.45 245,-279.399"/>
<ellipse fill="none" stroke="#4f66f8" cx="245" cy="-301.813" rx="4" ry="4"/>
<polygon fill="#4f66f8" stroke="#4f66f8" points="245,-279.029 249.5,-269.029 245,-274.029 245,-269.029 245,-269.029 245,-269.029 245,-274.029 240.5,-269.029 245,-279.029 245,-279.029"/>
</g>
<!-- Category -->
<g id="node22" class="node"><title>Category</title>
<ellipse fill="none" stroke="black" cx="376" cy="-564" rx="42.7926" ry="18"/>
<text text-anchor="middle" x="376" y="-560.3" font-family="Times,serif" font-size="14.00">Category</text>
</g>
</g>
</svg>
