<!-- Created with Inkscape (http://www.inkscape.org/) -->
<svg xmlns:rdf="http://www.w3.org/1999/02/22-rdf-syntax-ns#" xmlns="http://www.w3.org/2000/svg" xmlns:osb="http://www.openswatchbook.org/uri/2009/osb" xml:space="preserve" height="50" width="50" version="1.1" xmlns:cc="http://creativecommons.org/ns#" xmlns:xlink="http://www.w3.org/1999/xlink" xmlns:dc="http://purl.org/dc/elements/1.1/"><metadata><rdf:RDF><cc:Work rdf:about=""><dc:format>image/svg+xml</dc:format><dc:type rdf:resource="http://purl.org/dc/dcmitype/StillImage"/><dc:title/></cc:Work></rdf:RDF></metadata><defs><clipPath id="clipPath4060" clipPathUnits="userSpaceOnUse"><path d="m94.6,35.6a23.6,23.6,0,1,1,-47.2,0,23.6,23.6,0,1,1,47.2,0z" transform="matrix(-0.84746878,0,0,-0.84746878,379.27601,110.28621)" stroke="#FFF" fill="none"/></clipPath><radialGradient id="radialGradient4401" gradientUnits="userSpaceOnUse" cy="199" cx="50.6" gradientTransform="matrix(0.43223307,0.06143179,0.02267172,-0.15951784,287.21101,95.71293)" r="38.6"><stop stop-color="#000" offset="0"/><stop stop-color="#000" stop-opacity="0" offset="1"/></radialGradient></defs><g transform="matrix(1.25,0,0,-1.25,-358.26637,133.01101)"><g transform="translate(21.206696,8.3100349)"><g transform="matrix(0.87304576,0,0,0.87304576,36.233557,9.9149719)"><g transform="matrix(0.97087376,0,0,0.97087376,-24.424837,0.30994275)" clip-path="url(#clipPath4060)"><path fill="#FFF" d="m321,80.5c0.293,1.57,0.854,3.11,0.531,4.99-0.144,2.23,0.254,5.54-0.819,6.49-2.14,0.824-6.15,1.39-9.55-0.121-1.08-0.733-0.785-2.04-1.18-2.58l-0.394-3.21c-0.0457-0.611-0.358-0.956-0.637-1.33-0.0466-1.72,0.0797-2.57-0.182-5.37-0.764,0.469-0.936,1.53-1.15,2.55l0.606,0.819-0.243,1.97c-0.445-0.0836-0.89,0.201-1.33,0.334-0.136,0.485-0.007,0.97-0.819,1.46-0.223,0.945,0.0834,1.57,0.667,2.03,0.648,0.749,0.47,1.6,0.516,2.43,0.0707,1.02-0.365,2.21,0.212,3.06,0.556,0.432,0.869,1.54,1.61,1.91,0.969,0.842,1.77,0.944,2.67,1.33,0.526,0.629,1.11,0.59,1.64,0.788,1.01,0.131,2.02,0.132,3.03-0.0606,1.04-0.294,1.71-0.626,1.94-1,1.34-0.284,2-0.46,3.03-1.21,0.633-0.728,0.814-1.46,1.15-2.18,0.708-1.46,1.09-1.76,1.58-2.4l0.364-1.12c-0.0196-0.551,0.104-1.17-0.212-1.58l0.152-1.61c0.268-0.359,0.135-1.09,0-1.76-0.142-0.667-0.526-1.01-1.15-1.03-0.197-0.205-0.394-0.197-0.591-0.728-0.0476-0.763-0.257-1.34-0.546-2.11-0.566-0.81-0.495-0.422-0.879-0.758z"/><path fill="#FFF" d="m309,77.2,0-1.67c1.6-1.99,3.76-2.99,6.13-4.15,1.76,0.817,3.03,2.02,3.97,3.49-0.52,1.36,0.004,2.23,0.849,2.94,0.159,0.826,0.13,1.37,0.591,2.5,0.777,1.66,1.12,3.96,0.409,6.41-0.0491,1.33-0.182,2.67-0.152,4,0.322,1.62-0.968,1.25-1.7,1.36-2.69-0.664-4.61,0.701-8.07-0.334-1.01-1.43-2.05-2.83-1.64-5.52-0.703-0.697-0.695-2.18-2.88-1.24-0.302-1.17-0.067-1.41,0.728-3.09,1.21-1.1,0.94-2.92,1.91-3.28-0.002-0.436,0.215-0.697-0.152-1.43z"/><path fill="#FFF" d="m308,75.4c-0.273-0.827-0.407-1.43-0.516-2,1.1-5.61,3.51-10.6,4.61-15.2l9.1-0.091c-0.276,5.57-0.543,10.7-2.3,16.9-0.682-1.76-2.31-2.66-3.76-3.73-2.23,1.82-6.58,2.11-6.46,5.67z"/><path d="m308,75.4c-0.273-0.827-0.407-1.43-0.516-2,1.41-5.52,2.26-4.91,4.03-7.13,1.29,1.66,2.08,3.32,3.88,4.98,1.52-1.54,2.45-2.97,3.52-4.43,0.573,2.02,1.73,2.01-0.0304,8.19-0.682-1.76-2.31-2.66-3.76-3.73-2.23,1.82-6.58,2.11-6.46,5.67z" stroke="url(#radialGradient4401)" stroke-width="0.16193919" fill="#FFF"/><path fill="#000" d="m305,65.1c-2.62,3.13-1.78,2.7-3.71,5.33,1.6,0.883,3.14,1.45,4.81,2.74,0.452,0.348,1.16,1.21,1.39,1.51l0.294,0.398-0.0953-0.405c-0.314-1.34-0.276-1.87,0.236-3.32,0.283-0.802,0.664-1.97,0.847-2.59,0.525-1.79,1.83-5.97,2.55-8.14,0.359-1.09,0.654-2.1,0.654-2.23,0-0.202-0.526-0.238-3.48-0.238h-3.48zm16.2-6.83c-0.001,0.415-0.504,4.86-0.57,5.04-0.0445,0.121-0.123,0.769-0.173,1.44-0.07,0.926-0.19,1.37-0.498,1.83-0.223,0.337-0.417,0.845-0.432,1.13-0.0235,0.453-0.118,0.554-0.756,0.813-0.401,0.162-0.862,0.299-1.03,0.304-0.273,0.0083-0.267-0.0386,0.0763-0.594l0.373-0.603-0.562,0.4c-0.309,0.22-0.598,0.391-0.643,0.38-0.0445-0.0112-0.227,0.0338-0.405,0.1-0.178,0.0663-0.678,0.172-1.11,0.236-1.04,0.153-1.71-0.119-1.83-0.742-0.0612-0.306-0.193-0.463-0.388-0.463-0.162,0-0.522-0.237-0.798-0.526l-0.502-0.526,0.277,0.729c0.152,0.401,0.356,0.834,0.454,0.962,0.138,0.183,0.128,0.204-0.0503,0.0966-0.336-0.202-1.8-0.287-1.8-0.104,0,0.086-0.164,0.18-0.364,0.208-0.296,0.0421-0.375,0.172-0.422,0.7-0.0679,0.761,0.17,3.4,0.387,3.67,0.0967,0.122,0.584-0.0793,1.18-0.127,1.02-0.082,1.02-0.0923-0.399,0.79-0.439,0.272-0.676,0.52-0.606,0.632,0.0708,0.115,0.0426,0.141-0.0738,0.0688-0.104-0.064-0.302-0.0024-0.441,0.137-0.23,0.23-0.228,0.253,0.0186,0.253,0.194,0,0.24,0.0815,0.16,0.283-0.0618,0.156-0.141,0.429-0.177,0.607-0.193,0.971-0.289,1.31-0.439,1.55-0.122,0.195-0.0947,0.368,0.102,0.649,0.264,0.376,0.268,0.377,0.268,0.034,0-0.427,0.449-0.906,0.744-0.793,0.119,0.0458,0.26,0.0135,0.313-0.0717,0.0526-0.0852,0.0185-0.155-0.0758-0.155-0.401,0-0.11-0.354,0.76-0.925,0.888-0.583,1.3-0.73,2.67-0.959,0.615-0.103,2.07,0.202,2.07,0.434,0,0.0697,0.304,0.178,0.675,0.241,0.676,0.114,1.15,0.431,1.31,0.886,0.0729,0.196,0.0929,0.189,0.103-0.0342,0.007-0.152-0.12-0.407-0.283-0.567-0.163-0.159-0.494-0.556-0.736-0.881s-0.618-0.636-0.835-0.691c-0.452-0.113-0.655-0.674-0.487-1.34,0.0925-0.369,0.0234-0.511-0.428-0.88-0.484-0.395-0.507-0.452-0.234-0.557,0.167-0.0644,0.568-0.0236,0.891,0.0906,0.605,0.214,2.32,1.19,2.81,1.6,0.25,0.208,0.371,0.164,1.13-0.405,1.51-1.13,4.07-2.24,7.18-3.12,0.975-0.276,2.2-0.623,2.71-0.771,1.31-0.375,1.62-0.796,1.97-2.67,0.156-0.832,0.454-2.19,0.662-3.01,0.208-0.823,0.428-2.26,0.488-3.2l0.11-1.7h-6.17c-3.4,0-6.17,0.0546-6.17,0.121zm-9.16,15.2c-0.173,0.126-0.349,0.195-0.391,0.153-0.0891-0.0891,0.328-0.377,0.552-0.38,0.0838-0.0013,0.0111,0.101-0.162,0.227zm-2.42,1.39c0.0551,0.0891,0.173,0.162,0.262,0.162,0.0891,0,0.117-0.0729,0.0618-0.162-0.0551-0.0891-0.173-0.162-0.262-0.162-0.0891,0-0.117,0.0729-0.0618,0.162zm3.72,2.22-0.243,0.372,1.26,0.0025c0.692,0.0013,1.37,0.0731,1.5,0.159,0.173,0.112-0.0128,0.158-0.648,0.16-0.49,0.0018-1.17,0.0817-1.52,0.177-0.448,0.124-0.677,0.124-0.802-0.000986-0.0962-0.0961-0.496-0.175-0.889-0.175-0.617,0-0.698,0.0386-0.596,0.283,0.0647,0.156,0.121,0.373,0.125,0.483s0.141,0.242,0.305,0.294c0.163,0.0518,0.297,0.157,0.297,0.234,0,0.13,0.519,0.365,0.891,0.402,0.269,0.0271,1.05,0.452,1.05,0.571,0,0.061-0.146,0.243-0.324,0.404s-0.324,0.352-0.324,0.423c0,0.0716,0.765,0.13,1.7,0.13s1.7-0.037,1.7-0.0823c0-0.0452-0.107-0.29-0.239-0.544-0.214-0.413-0.211-0.484,0.024-0.68,0.144-0.12,0.561-0.292,0.926-0.381,0.488-0.119,0.722-0.285,0.886-0.63,0.201-0.421,0.194-0.485-0.0722-0.634-0.163-0.091-0.482-0.18-0.709-0.198-0.227-0.0179-0.696-0.224-1.04-0.459-1.23-0.832-2.82-0.985-3.26-0.313zm5.17-0.0489c-0.157,0.41,0.003,0.609,0.216,0.268,0.126-0.202,0.14-0.354,0.0388-0.417-0.0879-0.0543-0.203,0.0128-0.255,0.149zm-7.77,0.164c-0.173,0.126-0.27,0.274-0.215,0.328,0.158,0.158,0.983-0.217,0.873-0.396-0.136-0.22-0.286-0.204-0.657,0.0674zm-1.52,0.896c-0.007,0.383,0.0421,0.506,0.157,0.392,0.11-0.111,0.114-0.299,0.0103-0.559-0.147-0.368-0.157-0.358-0.167,0.167zm9.63-0.316c-0.0551,0.0891-0.0229,0.162,0.0714,0.162s0.171-0.0729,0.171-0.162-0.0321-0.162-0.0714-0.162-0.116,0.0729-0.171,0.162zm-10.9,1.83c-0.397,0.423-0.936,2.05-0.729,2.2,0.0744,0.0542,0.124,0.536,0.11,1.07-0.0325,1.26-0.0244,1.22-0.258,1.17-0.11-0.0223-0.311,0.195-0.445,0.482-0.134,0.288-0.33,0.524-0.434,0.526-0.104,0.0018-0.236,0.213-0.292,0.469-0.0562,0.256-0.281,0.633-0.499,0.838-0.396,0.372-0.54,0.964-0.234,0.964,0.0891,0,0.162,0.142,0.162,0.315s0.128,0.411,0.283,0.528c0.501,0.378,0.714,0.952,0.807,2.17,0.0853,1.13,0.212,1.41,0.454,1.02,0.0699-0.113,0.239-0.0836,0.5,0.0877,0.217,0.142,0.454,0.222,0.527,0.177,0.0729-0.045,0.358,0.139,0.634,0.408,0.554,0.542,0.543,1.04-0.0205,0.894-0.183-0.048-0.41-0.0263-0.504,0.0481-0.0937,0.0744-0.334,0.185-0.534,0.247-0.287,0.0881-0.343,0.0584-0.266-0.142,0.0643-0.168,0.006-0.254-0.173-0.254-0.159,0-0.223-0.0749-0.157-0.183,0.069-0.112,0.0254-0.152-0.112-0.104-0.39,0.137-0.187,1.12,0.342,1.65,0.262,0.263,0.533,0.417,0.602,0.342,0.0696-0.0744,0.0396-0.166-0.0667-0.205-0.207-0.074-0.105-0.534,0.118-0.534,0.0732,0,0.259,0.126,0.414,0.281,0.172,0.172,0.558,0.289,0.995,0.303,0.393,0.0125,0.796,0.105,0.897,0.205,0.1,0.1,0.277,0.182,0.393,0.182s0.211,0.102,0.211,0.226c0,0.363,1.06,1.19,2.21,1.73,0.86,0.402,1.19,0.478,1.7,0.392,0.746-0.126,0.683-0.318-0.239-0.73l-0.67-0.3,0.891,0.0603c0.748,0.0507,1.85,0.285,1.99,0.423,0.0206,0.0208,0.196-0.0468,0.389-0.15s0.849-0.231,1.46-0.283c0.833-0.0717,1.16-0.172,1.33-0.406,0.122-0.171,0.33-0.311,0.463-0.311,0.15,0,0.204-0.0938,0.145-0.249-0.0544-0.142,0.008-0.289,0.145-0.341,0.132-0.0507,0.24-0.23,0.24-0.399,0-0.174,0.113-0.307,0.262-0.307,0.182,0,0.236-0.0986,0.177-0.324-0.0466-0.178-0.0275-0.324,0.0425-0.324,0.0699,0,0.223-0.237,0.34-0.526s0.254-0.563,0.303-0.607c0.0497-0.0445,0.187-0.269,0.305-0.499s0.418-0.538,0.667-0.685c0.526-0.311,0.773-1.15,0.454-1.54-0.167-0.206-0.163-0.227,0.0218-0.115,0.183,0.11,0.204,0.0223,0.111-0.473-0.0628-0.335-0.0249-1.24,0.0842-2.01,0.177-1.25,0.169-1.46-0.0817-1.99-0.269-0.568-0.881-0.915-1.23-0.699-0.0824,0.0509-0.198-0.111-0.258-0.359-0.0594-0.249-0.18-0.543-0.267-0.654-0.0877-0.111-0.106-0.202-0.04-0.202,0.0657,0,0.002-0.18-0.142-0.399-0.315-0.481-0.352-0.97-0.0591-0.794,0.123,0.0738,0.11,0.0074-0.0336-0.169-0.225-0.277-0.25-0.274-0.529,0.0708-0.2,0.247-0.242,0.423-0.133,0.554,0.319,0.385,0.373,1.95,0.113,3.34-0.14,0.751-0.292,1.99-0.337,2.74-0.104,1.75-0.183,2.13-0.595,2.83l-0.336,0.57-1.38-0.0654c-0.76-0.036-1.46-0.144-1.56-0.24-0.0961-0.0962-0.338-0.175-0.538-0.175s-0.402-0.0631-0.45-0.14c-0.139-0.225-0.904-0.0079-0.904,0.256,0,0.199-0.174,0.22-1.01,0.124-0.557-0.064-1.05-0.172-1.09-0.24-0.0445-0.068-0.393-0.159-0.774-0.203-0.381-0.0435-0.824-0.198-0.985-0.343-0.16-0.145-0.333-0.223-0.383-0.172-0.0505,0.0505-0.0964-0.0769-0.102-0.283-0.0186-0.688-0.0757-0.942-0.212-0.942-0.0742,0-0.135-0.0729-0.135-0.162s-0.139-0.301-0.309-0.471c-0.216-0.216-0.341-0.645-0.413-1.42-0.065-0.692-0.255-1.4-0.506-1.89-0.435-0.843-0.545-1.95-0.248-2.5,0.1-0.187,0.182-0.548,0.182-0.802s0.145-0.747,0.323-1.09c0.371-0.728,0.167-1.04-0.426-0.651-0.342,0.224-0.348,0.215-0.274-0.493,0.0413-0.397,0.0464-0.721,0.0114-0.721-0.0351,0-0.222,0.169-0.416,0.374zm2.88,13.7c0.176,0.329,1.12,0.87,1.83,1.04,0.587,0.145,0.501,0.448-0.201,0.703-0.745,0.271-0.798,0.266-1.44-0.124-0.396-0.241-0.499-0.383-0.371-0.511s0.25-0.115,0.442,0.0437c0.146,0.121,0.422,0.241,0.614,0.266,0.342,0.0448,0.341,0.0393-0.0337-0.276-0.21-0.177-0.538-0.324-0.729-0.327-0.581-0.009-1.1-0.557-0.983-1.03,0.0861-0.343,0.154-0.385,0.407-0.249,0.167,0.0893,0.376,0.298,0.465,0.464zm1.71,2.44c0.0551,0.0891,0.0229,0.162-0.0714,0.162s-0.171-0.0729-0.171-0.162,0.0321-0.162,0.0714-0.162,0.116,0.0729,0.172,0.162zm6.73-16.2c-0.131,0.183-0.476,0.377-0.768,0.432-0.292,0.0547-0.488,0.168-0.437,0.251,0.0514,0.0832,0.0273,0.239-0.0538,0.347-0.081,0.107-0.155,0.351-0.164,0.541-0.017,0.342-0.0122,0.341,0.4-0.0405,0.493-0.457,0.939-0.497,1.16-0.103,0.128,0.227,0.201,0.243,0.364,0.081,0.306-0.303,0.452-0.249,0.655,0.243,0.151,0.366,0.196,0.393,0.253,0.15,0.0433-0.184,0.161-0.26,0.312-0.202,0.149,0.0572,0.217,0.015,0.176-0.11-0.0365-0.111-0.333-0.27-0.66-0.352-0.52-0.131-0.619-0.238-0.797-0.859-0.196-0.681-0.214-0.696-0.442-0.377zm-6.64,2.09c0.008,0.174,0.819,0.713,0.92,0.612,0.139-0.139-0.243-0.54-0.606-0.635-0.175-0.0458-0.316-0.0355-0.313,0.023zm4.04,0.361c-0.165,0.308-0.151,0.321,0.156,0.156,0.185-0.0989,0.336-0.25,0.336-0.336,0-0.278-0.307-0.166-0.492,0.18zm-5.19,1.99c0.12,0.145,0.388,0.263,0.594,0.263,0.207,0,0.421,0.073,0.476,0.162,0.171,0.276-0.759,0.512-1.58,0.399-0.667-0.0917-0.76-0.0707-0.674,0.152,0.0545,0.142,0.169,0.258,0.255,0.258,0.0855,0,0.111,0.141,0.0558,0.314-0.0697,0.22,0.004,0.37,0.246,0.499,0.19,0.102,0.379,0.151,0.421,0.11,0.0414-0.0414,0.345-0.0093,0.674,0.0712,0.835,0.204,2.78,0.421,2.8,0.311,0.111-0.764,0.0556-1.11-0.228-1.43-0.18-0.2-0.415-0.364-0.522-0.364s-0.295-0.147-0.417-0.328c-0.23-0.339-0.575-0.463-1.68-0.603-0.581-0.0739-0.623-0.056-0.426,0.182zm5.09,0.0597c-0.405,0.197-0.53,0.379-0.612,0.889-0.0564,0.353-0.056,0.89,0.001,1.19,0.102,0.546,0.111,0.551,0.855,0.487,0.413-0.036,1.04-0.0751,1.4-0.0871,0.711-0.0238,1.36-0.451,1.45-0.964,0.0341-0.177,0.145-0.476,0.246-0.665,0.181-0.337,0.166-0.342-0.791-0.233-1.09,0.123-1.72-0.002-1.31-0.26,0.131-0.0829,0.445-0.152,0.697-0.153,0.294-0.0016,0.435-0.0752,0.392-0.205-0.0983-0.298-1.72-0.299-2.33-0.0013zm-1.34,2.24c0.008,0.189,0.0461,0.227,0.0978,0.0978,0.0468-0.117,0.041-0.257-0.0128-0.31-0.0538-0.0538-0.0921,0.0418-0.085,0.213zm-7.62,5.9c0,0.0863,0.109,0.157,0.243,0.157s0.243-0.0286,0.243-0.0636-0.109-0.106-0.243-0.157c-0.134-0.0513-0.243-0.0226-0.243,0.0636zm5.34,5.5c0.134,0.0863,0.352,0.157,0.486,0.157,0.216,0,0.216-0.0174,0-0.157-0.134-0.0863-0.352-0.157-0.486-0.157-0.216,0-0.216,0.0174,0,0.157z"/><path fill="#cc0606" d="m325,65.1c0.301,0.298,0.797,0.485,1.38,0.622,0.713,0.265,1.31,0.168,1.87-0.091,0.436-0.605,0.335-1.08,0.136-1.59-0.768-0.549-1.5-0.428-2.5-0.273-1.1,0.268-0.989,0.411-0.879,1.33z"/></g><path d="m94.6,35.6c0,13-10.6,23.6-23.6,23.6s-23.6-10.6-23.6-23.6,10.6-23.6,23.6-23.6,23.6,10.6,23.6,23.6z" transform="matrix(-0.82278523,0,0,-0.82278523,343.80427,107.38392)" stroke="#FFF" stroke-dasharray="none" stroke-miterlimit="4" stroke-width="2.91692162" fill="none"/></g></g></g></svg>
